<svg width="1433" height="2540" viewBox="0 0 1433 2540" fill="none" xmlns="http://www.w3.org/2000/svg">
<g clip-path="url(#clip0_609_58)">
<path d="M1433 0H-7V2539H1433V0Z" fill="url(#paint0_linear_609_58)"/>
<path d="M120.352 2296.8C120.602 2296.8 120.804 2296.63 120.804 2296.42C120.804 2296.21 120.602 2296.04 120.352 2296.04C120.102 2296.04 119.9 2296.21 119.9 2296.42C119.9 2296.63 120.102 2296.8 120.352 2296.8Z" fill="#C4C4C4"/>
<path d="M81.9161 2386.65C82.4156 2386.65 82.8205 2386.3 82.8205 2385.88C82.8205 2385.46 82.4156 2385.11 81.9161 2385.11C81.4167 2385.11 81.0117 2385.46 81.0117 2385.88C81.0117 2386.3 81.4167 2386.65 81.9161 2386.65Z" fill="#C4C4C4"/>
<path d="M150.196 2161.65C150.446 2161.65 150.648 2161.48 150.648 2161.27C150.648 2161.06 150.446 2160.89 150.196 2160.89C149.946 2160.89 149.744 2161.06 149.744 2161.27C149.744 2161.48 149.946 2161.65 150.196 2161.65Z" fill="#C4C4C4"/>
<path d="M177.328 2008.84C177.578 2008.84 177.78 2008.67 177.78 2008.46C177.78 2008.25 177.578 2008.08 177.328 2008.08C177.078 2008.08 176.876 2008.25 176.876 2008.46C176.876 2008.67 177.078 2008.84 177.328 2008.84Z" fill="#C4C4C4"/>
<path d="M138.892 2414.29C139.392 2414.29 139.797 2413.94 139.797 2413.52C139.797 2413.1 139.392 2412.75 138.892 2412.75C138.393 2412.75 137.988 2413.1 137.988 2413.52C137.988 2413.94 138.393 2414.29 138.892 2414.29Z" fill="#C4C4C4"/>
<path d="M43.9322 2154.75C44.4317 2154.75 44.8365 2154.4 44.8365 2153.98C44.8365 2153.56 44.4317 2153.21 43.9322 2153.21C43.4327 2153.21 43.0278 2153.56 43.0278 2153.98C43.0278 2154.4 43.4327 2154.75 43.9322 2154.75Z" fill="#C4C4C4"/>
<path d="M26.7491 2316.77C27.2486 2316.77 27.6535 2316.42 27.6535 2316C27.6535 2315.58 27.2486 2315.23 26.7491 2315.23C26.2497 2315.23 25.8447 2315.58 25.8447 2316C25.8447 2316.42 26.2497 2316.77 26.7491 2316.77Z" fill="#C4C4C4"/>
<path d="M282.236 2188.53C282.486 2188.53 282.688 2188.36 282.688 2188.15C282.688 2187.94 282.486 2187.77 282.236 2187.77C281.986 2187.77 281.784 2187.94 281.784 2188.15C281.784 2188.36 281.986 2188.53 282.236 2188.53Z" fill="#C4C4C4"/>
<path d="M33.9839 2453.45C34.4834 2453.45 34.8883 2453.1 34.8883 2452.68C34.8883 2452.26 34.4834 2451.91 33.9839 2451.91C33.4845 2451.91 33.0796 2452.26 33.0796 2452.68C33.0796 2453.1 33.4845 2453.45 33.9839 2453.45Z" fill="#C4C4C4"/>
<path d="M78.2979 2229.23C78.7974 2229.23 79.2023 2228.88 79.2023 2228.46C79.2023 2228.04 78.7974 2227.69 78.2979 2227.69C77.7984 2227.69 77.3936 2228.04 77.3936 2228.46C77.3936 2228.88 77.7984 2229.23 78.2979 2229.23Z" fill="#C4C4C4"/>
<path d="M40.315 2425.04C40.8145 2425.04 41.2194 2424.69 41.2194 2424.27C41.2194 2423.85 40.8145 2423.5 40.315 2423.5C39.8155 2423.5 39.4106 2423.85 39.4106 2424.27C39.4106 2424.69 39.8155 2425.04 40.315 2425.04Z" fill="#C4C4C4"/>
<path d="M332.881 2087.17C333.131 2087.17 333.333 2087 333.333 2086.79C333.333 2086.58 333.131 2086.41 332.881 2086.41C332.631 2086.41 332.429 2086.58 332.429 2086.79C332.429 2087 332.631 2087.17 332.881 2087.17Z" fill="#C4C4C4"/>
<path d="M127.587 2097.92C127.837 2097.92 128.039 2097.75 128.039 2097.54C128.039 2097.33 127.837 2097.16 127.587 2097.16C127.337 2097.16 127.135 2097.33 127.135 2097.54C127.135 2097.75 127.337 2097.92 127.587 2097.92Z" fill="#C4C4C4"/>
<path d="M284.949 2160.11C285.199 2160.11 285.401 2159.94 285.401 2159.73C285.401 2159.52 285.199 2159.35 284.949 2159.35C284.699 2159.35 284.497 2159.52 284.497 2159.73C284.497 2159.94 284.699 2160.11 284.949 2160.11Z" fill="#C4C4C4"/>
<path d="M179.137 2069.5C179.387 2069.5 179.589 2069.33 179.589 2069.12C179.589 2068.91 179.387 2068.74 179.137 2068.74C178.887 2068.74 178.685 2068.91 178.685 2069.12C178.685 2069.33 178.887 2069.5 179.137 2069.5Z" fill="#C4C4C4"/>
<path d="M201.746 2125.56C201.996 2125.56 202.198 2125.39 202.198 2125.18C202.198 2124.97 201.996 2124.8 201.746 2124.8C201.496 2124.8 201.294 2124.97 201.294 2125.18C201.294 2125.39 201.496 2125.56 201.746 2125.56Z" fill="#C4C4C4"/>
<path d="M1072.21 2194.68C1072.71 2194.68 1073.11 2194.33 1073.11 2193.91C1073.11 2193.49 1072.71 2193.14 1072.21 2193.14C1071.71 2193.14 1071.31 2193.49 1071.31 2193.91C1071.31 2194.33 1071.71 2194.68 1072.21 2194.68Z" fill="#C4C4C4"/>
<path d="M1063.17 2164.73C1063.67 2164.73 1064.07 2164.38 1064.07 2163.96C1064.07 2163.54 1063.67 2163.19 1063.17 2163.19C1062.67 2163.19 1062.27 2163.54 1062.27 2163.96C1062.27 2164.38 1062.67 2164.73 1063.17 2164.73Z" fill="#C4C4C4"/>
<path d="M293.54 2071.05C294.04 2071.05 294.445 2070.7 294.445 2070.28C294.445 2069.86 294.04 2069.51 293.54 2069.51C293.041 2069.51 292.636 2069.86 292.636 2070.28C292.636 2070.7 293.041 2071.05 293.54 2071.05Z" fill="#C4C4C4"/>
<path d="M714.08 1909.02C714.58 1909.02 714.984 1908.67 714.984 1908.25C714.984 1907.83 714.58 1907.48 714.08 1907.48C713.581 1907.48 713.176 1907.83 713.176 1908.25C713.176 1908.67 713.581 1909.02 714.08 1909.02Z" fill="#C4C4C4"/>
<path d="M324.289 2147.83C324.789 2147.83 325.193 2147.48 325.193 2147.06C325.193 2146.64 324.789 2146.29 324.289 2146.29C323.79 2146.29 323.385 2146.64 323.385 2147.06C323.385 2147.48 323.79 2147.83 324.289 2147.83Z" fill="#C4C4C4"/>
<path d="M295.349 2134.78C295.849 2134.78 296.254 2134.43 296.254 2134.01C296.254 2133.59 295.849 2133.24 295.349 2133.24C294.85 2133.24 294.445 2133.59 294.445 2134.01C294.445 2134.43 294.85 2134.78 295.349 2134.78Z" fill="#C4C4C4"/>
<path d="M804.51 1879.08C805.009 1879.08 805.414 1878.73 805.414 1878.31C805.414 1877.89 805.009 1877.54 804.51 1877.54C804.01 1877.54 803.605 1877.89 803.605 1878.31C803.605 1878.73 804.01 1879.08 804.51 1879.08Z" fill="#C4C4C4"/>
<path d="M208.529 2120.19C209.028 2120.19 209.433 2119.84 209.433 2119.42C209.433 2119 209.028 2118.65 208.529 2118.65C208.029 2118.65 207.625 2119 207.625 2119.42C207.625 2119.84 208.029 2120.19 208.529 2120.19Z" fill="#C4C4C4"/>
<path d="M11.3741 2382.04C11.8736 2382.04 12.2785 2381.69 12.2785 2381.27C12.2785 2380.85 11.8736 2380.5 11.3741 2380.5C10.8747 2380.5 10.4697 2380.85 10.4697 2381.27C10.4697 2381.69 10.8747 2382.04 11.3741 2382.04Z" fill="#C4C4C4"/>
<path d="M642.63 2037.26C643.129 2037.26 643.534 2036.91 643.534 2036.49C643.534 2036.07 643.129 2035.72 642.63 2035.72C642.131 2035.72 641.726 2036.07 641.726 2036.49C641.726 2036.91 642.131 2037.26 642.63 2037.26Z" fill="#C4C4C4"/>
<path d="M1127.83 2309.08C1128.08 2309.08 1128.28 2308.91 1128.28 2308.7C1128.28 2308.49 1128.08 2308.32 1127.83 2308.32C1127.58 2308.32 1127.38 2308.49 1127.38 2308.7C1127.38 2308.91 1127.58 2309.08 1127.83 2309.08Z" fill="#C4C4C4"/>
<path d="M728.09 1885.21C728.34 1885.21 728.542 1885.04 728.542 1884.83C728.542 1884.62 728.34 1884.45 728.09 1884.45C727.84 1884.45 727.638 1884.62 727.638 1884.83C727.638 1885.04 727.84 1885.21 728.09 1885.21Z" fill="#C4C4C4"/>
<path d="M822.15 1916.7C822.4 1916.7 822.602 1916.53 822.602 1916.32C822.602 1916.11 822.4 1915.94 822.15 1915.94C821.9 1915.94 821.698 1916.11 821.698 1916.32C821.698 1916.53 821.9 1916.7 822.15 1916.7Z" fill="#C4C4C4"/>
<path d="M1164.91 1910.55C1165.16 1910.55 1165.36 1910.38 1165.36 1910.17C1165.36 1909.96 1165.16 1909.79 1164.91 1909.79C1164.66 1909.79 1164.46 1909.96 1164.46 1910.17C1164.46 1910.38 1164.66 1910.55 1164.91 1910.55Z" fill="#C4C4C4"/>
<path d="M188.18 2249.96C188.429 2249.96 188.632 2249.79 188.632 2249.58C188.632 2249.37 188.429 2249.2 188.18 2249.2C187.93 2249.2 187.728 2249.37 187.728 2249.58C187.728 2249.79 187.93 2249.96 188.18 2249.96Z" fill="#C4C4C4"/>
<path d="M1121.5 2147.06C1121.75 2147.06 1121.95 2146.89 1121.95 2146.68C1121.95 2146.47 1121.75 2146.3 1121.5 2146.3C1121.25 2146.3 1121.05 2146.47 1121.05 2146.68C1121.05 2146.89 1121.25 2147.06 1121.5 2147.06Z" fill="#C4C4C4"/>
<path d="M616.86 1968.91C617.11 1968.91 617.312 1968.74 617.312 1968.53C617.312 1968.32 617.11 1968.15 616.86 1968.15C616.61 1968.15 616.408 1968.32 616.408 1968.53C616.408 1968.74 616.61 1968.91 616.86 1968.91Z" fill="#C4C4C4"/>
<path d="M1123.31 2279.9C1123.56 2279.9 1123.76 2279.73 1123.76 2279.52C1123.76 2279.31 1123.56 2279.14 1123.31 2279.14C1123.06 2279.14 1122.86 2279.31 1122.86 2279.52C1122.86 2279.73 1123.06 2279.9 1123.31 2279.9Z" fill="#C4C4C4"/>
<path d="M662.98 1939.73C663.23 1939.73 663.432 1939.56 663.432 1939.35C663.432 1939.14 663.23 1938.97 662.98 1938.97C662.73 1938.97 662.528 1939.14 662.528 1939.35C662.528 1939.56 662.73 1939.73 662.98 1939.73Z" fill="#C4C4C4"/>
<path d="M656.65 1889.05C656.9 1889.05 657.102 1888.88 657.102 1888.67C657.102 1888.46 656.9 1888.29 656.65 1888.29C656.4 1888.29 656.198 1888.46 656.198 1888.67C656.198 1888.88 656.4 1889.05 656.65 1889.05Z" fill="#C4C4C4"/>
<path d="M388.5 2199.28C389 2199.28 389.404 2198.93 389.404 2198.51C389.404 2198.09 389 2197.74 388.5 2197.74C388.001 2197.74 387.596 2198.09 387.596 2198.51C387.596 2198.93 388.001 2199.28 388.5 2199.28Z" fill="#C4C4C4"/>
<path d="M284.949 2282.21C285.199 2282.21 285.401 2282.04 285.401 2281.83C285.401 2281.62 285.199 2281.45 284.949 2281.45C284.699 2281.45 284.497 2281.62 284.497 2281.83C284.497 2282.04 284.699 2282.21 284.949 2282.21Z" fill="#C4C4C4"/>
<path d="M627.71 1892.89C627.96 1892.89 628.162 1892.72 628.162 1892.51C628.162 1892.3 627.96 1892.13 627.71 1892.13C627.46 1892.13 627.258 1892.3 627.258 1892.51C627.258 1892.72 627.46 1892.89 627.71 1892.89Z" fill="#C4C4C4"/>
<path d="M598.77 1879.84C599.02 1879.84 599.222 1879.67 599.222 1879.46C599.222 1879.25 599.02 1879.08 598.77 1879.08C598.52 1879.08 598.318 1879.25 598.318 1879.46C598.318 1879.67 598.52 1879.84 598.77 1879.84Z" fill="#C4C4C4"/>
<path d="M406.14 1910.55C406.39 1910.55 406.592 1910.38 406.592 1910.17C406.592 1909.96 406.39 1909.79 406.14 1909.79C405.89 1909.79 405.688 1909.96 405.688 1910.17C405.688 1910.38 405.89 1910.55 406.14 1910.55Z" fill="#C4C4C4"/>
<path d="M397.09 1880.61C397.34 1880.61 397.542 1880.44 397.542 1880.23C397.542 1880.02 397.34 1879.85 397.09 1879.85C396.84 1879.85 396.638 1880.02 396.638 1880.23C396.638 1880.44 396.84 1880.61 397.09 1880.61Z" fill="#C4C4C4"/>
<path d="M313.889 1895.2C314.139 1895.2 314.341 1895.03 314.341 1894.82C314.341 1894.61 314.139 1894.44 313.889 1894.44C313.639 1894.44 313.437 1894.61 313.437 1894.82C313.437 1895.03 313.639 1895.2 313.889 1895.2Z" fill="#C4C4C4"/>
<path d="M393.47 1905.18C393.719 1905.18 393.922 1905.01 393.922 1904.8C393.922 1904.59 393.719 1904.42 393.47 1904.42C393.22 1904.42 393.018 1904.59 393.018 1904.8C393.018 1905.01 393.22 1905.18 393.47 1905.18Z" fill="#C4C4C4"/>
<path d="M1293.78 1887.52C1294.28 1887.52 1294.68 1887.17 1294.68 1886.75C1294.68 1886.33 1294.28 1885.98 1293.78 1885.98C1293.28 1885.98 1292.88 1886.33 1292.88 1886.75C1292.88 1887.17 1293.28 1887.52 1293.78 1887.52Z" fill="#C4C4C4"/>
<path d="M1113.36 2107.9C1113.61 2107.9 1113.81 2107.73 1113.81 2107.52C1113.81 2107.31 1113.61 2107.14 1113.36 2107.14C1113.11 2107.14 1112.91 2107.31 1112.91 2107.52C1112.91 2107.73 1113.11 2107.9 1113.36 2107.9Z" fill="#C4C4C4"/>
<path d="M226.617 1303.17C227.117 1303.17 227.522 1302.82 227.522 1302.4C227.522 1301.98 227.117 1301.63 226.617 1301.63C226.118 1301.63 225.713 1301.98 225.713 1302.4C225.713 1302.82 226.118 1303.17 226.617 1303.17Z" fill="#C4C4C4"/>
<path d="M217.573 1273.22C218.072 1273.22 218.477 1272.87 218.477 1272.45C218.477 1272.03 218.072 1271.68 217.573 1271.68C217.073 1271.68 216.668 1272.03 216.668 1272.45C216.668 1272.87 217.073 1273.22 217.573 1273.22Z" fill="#C4C4C4"/>
<path d="M164.667 1459.81C164.917 1459.81 165.119 1459.64 165.119 1459.43C165.119 1459.22 164.917 1459.05 164.667 1459.05C164.417 1459.05 164.215 1459.22 164.215 1459.43C164.215 1459.64 164.417 1459.81 164.667 1459.81Z" fill="#C4C4C4"/>
<path d="M270.479 1488.99C270.729 1488.99 270.931 1488.82 270.931 1488.61C270.931 1488.4 270.729 1488.23 270.479 1488.23C270.229 1488.23 270.027 1488.4 270.027 1488.61C270.027 1488.82 270.229 1488.99 270.479 1488.99Z" fill="#C4C4C4"/>
<path d="M348.255 1469.02C348.505 1469.02 348.707 1468.85 348.707 1468.64C348.707 1468.43 348.505 1468.26 348.255 1468.26C348.005 1468.26 347.803 1468.43 347.803 1468.64C347.803 1468.85 348.005 1469.02 348.255 1469.02Z" fill="#C4C4C4"/>
<path d="M299.871 1517.41C300.371 1517.41 300.776 1517.06 300.776 1516.64C300.776 1516.22 300.371 1515.87 299.871 1515.87C299.372 1515.87 298.967 1516.22 298.967 1516.64C298.967 1517.06 299.372 1517.41 299.871 1517.41Z" fill="#C4C4C4"/>
<path d="M227.068 1482.08C227.318 1482.08 227.52 1481.91 227.52 1481.7C227.52 1481.49 227.318 1481.32 227.068 1481.32C226.818 1481.32 226.616 1481.49 226.616 1481.7C226.616 1481.91 226.818 1482.08 227.068 1482.08Z" fill="#C4C4C4"/>
<path d="M275.905 1255.55C276.155 1255.55 276.357 1255.38 276.357 1255.17C276.357 1254.96 276.155 1254.79 275.905 1254.79C275.655 1254.79 275.453 1254.96 275.453 1255.17C275.453 1255.38 275.655 1255.55 275.905 1255.55Z" fill="#C4C4C4"/>
<path d="M277.714 1388.4C277.964 1388.4 278.166 1388.23 278.166 1388.02C278.166 1387.81 277.964 1387.64 277.714 1387.64C277.464 1387.64 277.262 1387.81 277.262 1388.02C277.262 1388.23 277.464 1388.4 277.714 1388.4Z" fill="#C4C4C4"/>
<path d="M166.475 1363.82C166.725 1363.82 166.927 1363.65 166.927 1363.44C166.927 1363.23 166.725 1363.06 166.475 1363.06C166.225 1363.06 166.023 1363.23 166.023 1363.44C166.023 1363.65 166.225 1363.82 166.475 1363.82Z" fill="#C4C4C4"/>
<path d="M160.145 1313.15C160.395 1313.15 160.597 1312.98 160.597 1312.77C160.597 1312.56 160.395 1312.39 160.145 1312.39C159.895 1312.39 159.693 1312.56 159.693 1312.77C159.693 1312.98 159.895 1313.15 160.145 1313.15Z" fill="#C4C4C4"/>
<path d="M160.145 1214.86C160.395 1214.86 160.597 1214.69 160.597 1214.48C160.597 1214.27 160.395 1214.1 160.145 1214.1C159.895 1214.1 159.693 1214.27 159.693 1214.48C159.693 1214.69 159.895 1214.86 160.145 1214.86Z" fill="#C4C4C4"/>
<path d="M267.766 1216.39C268.016 1216.39 268.218 1216.22 268.218 1216.01C268.218 1215.8 268.016 1215.63 267.766 1215.63C267.516 1215.63 267.314 1215.8 267.314 1216.01C267.314 1216.22 267.516 1216.39 267.766 1216.39Z" fill="#C4C4C4"/>
<path d="M1295.14 2052.61C1295.39 2052.61 1295.59 2052.44 1295.59 2052.23C1295.59 2052.02 1295.39 2051.85 1295.14 2051.85C1294.89 2051.85 1294.69 2052.02 1294.69 2052.23C1294.69 2052.44 1294.89 2052.61 1295.14 2052.61Z" fill="#C4C4C4"/>
<path d="M1178.02 1965.85C1178.52 1965.85 1178.92 1965.5 1178.92 1965.08C1178.92 1964.66 1178.52 1964.31 1178.02 1964.31C1177.52 1964.31 1177.12 1964.66 1177.12 1965.08C1177.12 1965.5 1177.52 1965.85 1178.02 1965.85Z" fill="#C4C4C4"/>
<path d="M332.881 2019.59C333.131 2019.59 333.333 2019.42 333.333 2019.21C333.333 2019 333.131 2018.83 332.881 2018.83C332.631 2018.83 332.429 2019 332.429 2019.21C332.429 2019.42 332.631 2019.59 332.881 2019.59Z" fill="#C4C4C4"/>
<path d="M368.6 2005.01C369.1 2005.01 369.505 2004.66 369.505 2004.24C369.505 2003.82 369.1 2003.47 368.6 2003.47C368.101 2003.47 367.696 2003.82 367.696 2004.24C367.696 2004.66 368.101 2005.01 368.6 2005.01Z" fill="#C4C4C4"/>
<path d="M339.211 1991.18C339.461 1991.18 339.663 1991.01 339.663 1990.8C339.663 1990.59 339.461 1990.42 339.211 1990.42C338.961 1990.42 338.759 1990.59 338.759 1990.8C338.759 1991.01 338.961 1991.18 339.211 1991.18Z" fill="#C4C4C4"/>
<path d="M521.44 1986.58C521.939 1986.58 522.344 1986.23 522.344 1985.81C522.344 1985.39 521.939 1985.04 521.44 1985.04C520.94 1985.04 520.536 1985.39 520.536 1985.81C520.536 1986.23 520.94 1986.58 521.44 1986.58Z" fill="#C4C4C4"/>
<path d="M620.93 1915.94C621.429 1915.94 621.834 1915.59 621.834 1915.17C621.834 1914.75 621.429 1914.4 620.93 1914.4C620.43 1914.4 620.025 1914.75 620.025 1915.17C620.025 1915.59 620.43 1915.94 620.93 1915.94Z" fill="#C4C4C4"/>
<path d="M158.788 1878.31C159.288 1878.31 159.693 1877.96 159.693 1877.54C159.693 1877.12 159.288 1876.77 158.788 1876.77C158.289 1876.77 157.884 1877.12 157.884 1877.54C157.884 1877.96 158.289 1878.31 158.788 1878.31Z" fill="#C4C4C4"/>
<path d="M60.211 2033.42C60.7105 2033.42 61.1154 2033.07 61.1154 2032.65C61.1154 2032.23 60.7105 2031.88 60.211 2031.88C59.7115 2031.88 59.3066 2032.23 59.3066 2032.65C59.3066 2033.07 59.7115 2033.42 60.211 2033.42Z" fill="#C4C4C4"/>
<path d="M95.482 2018.06C95.9815 2018.06 96.3864 2017.71 96.3864 2017.29C96.3864 2016.87 95.9815 2016.52 95.482 2016.52C94.9825 2016.52 94.5776 2016.87 94.5776 2017.29C94.5776 2017.71 94.9825 2018.06 95.482 2018.06Z" fill="#C4C4C4"/>
<path d="M1411.8 2385.87C1412.05 2385.87 1412.25 2385.7 1412.25 2385.49C1412.25 2385.28 1412.05 2385.11 1411.8 2385.11C1411.55 2385.11 1411.35 2385.28 1411.35 2385.49C1411.35 2385.7 1411.55 2385.87 1411.8 2385.87Z" fill="#C4C4C4"/>
<path d="M136.179 1544.28C136.678 1544.28 137.083 1543.93 137.083 1543.51C137.083 1543.09 136.678 1542.74 136.179 1542.74C135.679 1542.74 135.274 1543.09 135.274 1543.51C135.274 1543.93 135.679 1544.28 136.179 1544.28Z" fill="#C4C4C4"/>
<path d="M127.135 1514.34C127.634 1514.34 128.039 1513.99 128.039 1513.57C128.039 1513.15 127.634 1512.8 127.135 1512.8C126.635 1512.8 126.23 1513.15 126.23 1513.57C126.23 1513.99 126.635 1514.34 127.135 1514.34Z" fill="#C4C4C4"/>
<path d="M125.778 1808.43C126.028 1808.43 126.23 1808.26 126.23 1808.05C126.23 1807.84 126.028 1807.67 125.778 1807.67C125.528 1807.67 125.326 1807.84 125.326 1808.05C125.326 1808.26 125.528 1808.43 125.778 1808.43Z" fill="#C4C4C4"/>
<path d="M203.555 1875.23C203.804 1875.23 204.007 1875.06 204.007 1874.85C204.007 1874.64 203.804 1874.47 203.555 1874.47C203.305 1874.47 203.103 1874.64 203.103 1874.85C203.103 1875.06 203.305 1875.23 203.555 1875.23Z" fill="#C4C4C4"/>
<path d="M309.367 1817.64C309.617 1817.64 309.819 1817.47 309.819 1817.26C309.819 1817.05 309.617 1816.88 309.367 1816.88C309.118 1816.88 308.915 1817.05 308.915 1817.26C308.915 1817.47 309.118 1817.64 309.367 1817.64Z" fill="#C4C4C4"/>
<path d="M232.947 1903.65C233.446 1903.65 233.851 1903.3 233.851 1902.88C233.851 1902.46 233.446 1902.11 232.947 1902.11C232.447 1902.11 232.042 1902.46 232.042 1902.88C232.042 1903.3 232.447 1903.65 232.947 1903.65Z" fill="#C4C4C4"/>
<path d="M160.145 1868.32C160.395 1868.32 160.597 1868.15 160.597 1867.94C160.597 1867.73 160.395 1867.56 160.145 1867.56C159.895 1867.56 159.693 1867.73 159.693 1867.94C159.693 1868.15 159.895 1868.32 160.145 1868.32Z" fill="#C4C4C4"/>
<path d="M177.328 1526.62C177.578 1526.62 177.78 1526.45 177.78 1526.24C177.78 1526.03 177.578 1525.86 177.328 1525.86C177.078 1525.86 176.876 1526.03 176.876 1526.24C176.876 1526.45 177.078 1526.62 177.328 1526.62Z" fill="#C4C4C4"/>
<path d="M1104.32 1726.26C1104.57 1726.26 1104.77 1726.09 1104.77 1725.88C1104.77 1725.67 1104.57 1725.5 1104.32 1725.5C1104.07 1725.5 1103.87 1725.67 1103.87 1725.88C1103.87 1726.09 1104.07 1726.26 1104.32 1726.26Z" fill="#C4C4C4"/>
<path d="M1069.5 1754.68C1070 1754.68 1070.4 1754.33 1070.4 1753.91C1070.4 1753.49 1070 1753.14 1069.5 1753.14C1069 1753.14 1068.6 1753.49 1068.6 1753.91C1068.6 1754.33 1069 1754.68 1069.5 1754.68Z" fill="#C4C4C4"/>
<path d="M1060.9 1719.35C1061.15 1719.35 1061.35 1719.18 1061.35 1718.97C1061.35 1718.76 1061.15 1718.59 1060.9 1718.59C1060.65 1718.59 1060.45 1718.76 1060.45 1718.97C1060.45 1719.18 1060.65 1719.35 1060.9 1719.35Z" fill="#C4C4C4"/>
<path d="M1000.31 1601.1C1000.56 1601.1 1000.76 1600.93 1000.76 1600.72C1000.76 1600.51 1000.56 1600.34 1000.31 1600.34C1000.06 1600.34 999.858 1600.51 999.858 1600.72C999.858 1600.93 1000.06 1601.1 1000.31 1601.1Z" fill="#C4C4C4"/>
<path d="M914.4 1599.56C914.65 1599.56 914.852 1599.39 914.852 1599.18C914.852 1598.97 914.65 1598.8 914.4 1598.8C914.15 1598.8 913.948 1598.97 913.948 1599.18C913.948 1599.39 914.15 1599.56 914.4 1599.56Z" fill="#C4C4C4"/>
<path d="M905.35 1569.62C905.6 1569.62 905.802 1569.45 905.802 1569.24C905.802 1569.03 905.6 1568.86 905.35 1568.86C905.1 1568.86 904.898 1569.03 904.898 1569.24C904.898 1569.45 905.1 1569.62 905.35 1569.62Z" fill="#C4C4C4"/>
<path d="M901.73 1594.19C901.98 1594.19 902.182 1594.02 902.182 1593.81C902.182 1593.6 901.98 1593.43 901.73 1593.43C901.48 1593.43 901.278 1593.6 901.278 1593.81C901.278 1594.02 901.48 1594.19 901.73 1594.19Z" fill="#C4C4C4"/>
<path d="M820.34 1675.58C820.59 1675.58 820.792 1675.41 820.792 1675.2C820.792 1674.99 820.59 1674.82 820.34 1674.82C820.09 1674.82 819.888 1674.99 819.888 1675.2C819.888 1675.41 820.09 1675.58 820.34 1675.58Z" fill="#C4C4C4"/>
<path d="M822.15 1736.25C822.4 1736.25 822.602 1736.08 822.602 1735.87C822.602 1735.66 822.4 1735.49 822.15 1735.49C821.9 1735.49 821.698 1735.66 821.698 1735.87C821.698 1736.08 821.9 1736.25 822.15 1736.25Z" fill="#C4C4C4"/>
<path d="M970.01 1781.56C970.509 1781.56 970.914 1781.21 970.914 1780.79C970.914 1780.37 970.509 1780.02 970.01 1780.02C969.51 1780.02 969.105 1780.37 969.105 1780.79C969.105 1781.21 969.51 1781.56 970.01 1781.56Z" fill="#C4C4C4"/>
<path d="M960.97 1751.61C961.469 1751.61 961.874 1751.26 961.874 1750.84C961.874 1750.42 961.469 1750.07 960.97 1750.07C960.47 1750.07 960.065 1750.42 960.065 1750.84C960.065 1751.26 960.47 1751.61 960.97 1751.61Z" fill="#C4C4C4"/>
<path d="M1011.16 1763.89C1011.41 1763.89 1011.61 1763.72 1011.61 1763.51C1011.61 1763.3 1011.41 1763.13 1011.16 1763.13C1010.91 1763.13 1010.71 1763.3 1010.71 1763.51C1010.71 1763.72 1010.91 1763.89 1011.16 1763.89Z" fill="#C4C4C4"/>
<path d="M246.965 1707.07C247.215 1707.07 247.417 1706.9 247.417 1706.69C247.417 1706.48 247.215 1706.31 246.965 1706.31C246.715 1706.31 246.513 1706.48 246.513 1706.69C246.513 1706.9 246.715 1707.07 246.965 1707.07Z" fill="#C4C4C4"/>
<path d="M135.727 1682.49C135.977 1682.49 136.179 1682.32 136.179 1682.11C136.179 1681.9 135.977 1681.73 135.727 1681.73C135.477 1681.73 135.275 1681.9 135.275 1682.11C135.275 1682.32 135.477 1682.49 135.727 1682.49Z" fill="#C4C4C4"/>
<path d="M129.396 1631.81C129.646 1631.81 129.848 1631.64 129.848 1631.43C129.848 1631.22 129.646 1631.05 129.396 1631.05C129.146 1631.05 128.944 1631.22 128.944 1631.43C128.944 1631.64 129.146 1631.81 129.396 1631.81Z" fill="#C4C4C4"/>
<path d="M1345.78 2508.73C1346.03 2508.73 1346.23 2508.56 1346.23 2508.35C1346.23 2508.14 1346.03 2507.97 1345.78 2507.97C1345.53 2507.97 1345.33 2508.14 1345.33 2508.35C1345.33 2508.56 1345.53 2508.73 1345.78 2508.73Z" fill="#C4C4C4"/>
<path d="M580.68 1637.96C580.93 1637.96 581.132 1637.79 581.132 1637.58C581.132 1637.37 580.93 1637.2 580.68 1637.2C580.43 1637.2 580.228 1637.37 580.228 1637.58C580.228 1637.79 580.43 1637.96 580.68 1637.96Z" fill="#C4C4C4"/>
<path d="M747.09 1855.27C747.34 1855.27 747.542 1855.1 747.542 1854.89C747.542 1854.68 747.34 1854.51 747.09 1854.51C746.84 1854.51 746.638 1854.68 746.638 1854.89C746.638 1855.1 746.84 1855.27 747.09 1855.27Z" fill="#C4C4C4"/>
<path d="M824.86 1922.07C825.11 1922.07 825.312 1921.9 825.312 1921.69C825.312 1921.48 825.11 1921.31 824.86 1921.31C824.61 1921.31 824.408 1921.48 824.408 1921.69C824.408 1921.9 824.61 1922.07 824.86 1922.07Z" fill="#C4C4C4"/>
<path d="M1192.94 1864.48C1193.19 1864.48 1193.39 1864.31 1193.39 1864.1C1193.39 1863.89 1193.19 1863.72 1192.94 1863.72C1192.69 1863.72 1192.49 1863.89 1192.49 1864.1C1192.49 1864.31 1192.69 1864.48 1192.94 1864.48Z" fill="#C4C4C4"/>
<path d="M868.27 1753.91C868.52 1753.91 868.722 1753.74 868.722 1753.53C868.722 1753.32 868.52 1753.15 868.27 1753.15C868.02 1753.15 867.818 1753.32 867.818 1753.53C867.818 1753.74 868.02 1753.91 868.27 1753.91Z" fill="#C4C4C4"/>
<path d="M757.03 1729.33C757.28 1729.33 757.482 1729.16 757.482 1728.95C757.482 1728.74 757.28 1728.57 757.03 1728.57C756.78 1728.57 756.578 1728.74 756.578 1728.95C756.578 1729.16 756.78 1729.33 757.03 1729.33Z" fill="#C4C4C4"/>
<path d="M750.7 1678.65C750.95 1678.65 751.152 1678.48 751.152 1678.27C751.152 1678.06 750.95 1677.89 750.7 1677.89C750.45 1677.89 750.248 1678.06 750.248 1678.27C750.248 1678.48 750.45 1678.65 750.7 1678.65Z" fill="#C4C4C4"/>
<path d="M671.12 1727.8C671.37 1727.8 671.572 1727.63 671.572 1727.42C671.572 1727.21 671.37 1727.04 671.12 1727.04C670.87 1727.04 670.668 1727.21 670.668 1727.42C670.668 1727.63 670.87 1727.8 671.12 1727.8Z" fill="#C4C4C4"/>
<path d="M658.46 1722.42C658.71 1722.42 658.912 1722.25 658.912 1722.04C658.912 1721.83 658.71 1721.66 658.46 1721.66C658.21 1721.66 658.008 1721.83 658.008 1722.04C658.008 1722.25 658.21 1722.42 658.46 1722.42Z" fill="#C4C4C4"/>
<path d="M492.05 1697.08C492.3 1697.08 492.502 1696.91 492.502 1696.7C492.502 1696.49 492.3 1696.32 492.05 1696.32C491.8 1696.32 491.598 1696.49 491.598 1696.7C491.598 1696.91 491.8 1697.08 492.05 1697.08Z" fill="#C4C4C4"/>
<path d="M680.61 1837.61C681.109 1837.61 681.514 1837.26 681.514 1836.84C681.514 1836.42 681.109 1836.07 680.61 1836.07C680.111 1836.07 679.706 1836.42 679.706 1836.84C679.706 1837.26 680.111 1837.61 680.61 1837.61Z" fill="#C4C4C4"/>
<path d="M1379.7 2306.02C1380.2 2306.02 1380.6 2305.67 1380.6 2305.25C1380.6 2304.83 1380.2 2304.48 1379.7 2304.48C1379.2 2304.48 1378.8 2304.83 1378.8 2305.25C1378.8 2305.67 1379.2 2306.02 1379.7 2306.02Z" fill="#C4C4C4"/>
<path d="M66.5421 2005.01C67.0415 2005.01 67.4464 2004.66 67.4464 2004.24C67.4464 2003.82 67.0415 2003.47 66.5421 2003.47C66.0426 2003.47 65.6377 2003.82 65.6377 2004.24C65.6377 2004.66 66.0426 2005.01 66.5421 2005.01Z" fill="#C4C4C4"/>
<path d="M1176.67 1989.65C1176.92 1989.65 1177.12 1989.48 1177.12 1989.27C1177.12 1989.06 1176.92 1988.89 1176.67 1988.89C1176.42 1988.89 1176.22 1989.06 1176.22 1989.27C1176.22 1989.48 1176.42 1989.65 1176.67 1989.65Z" fill="#C4C4C4"/>
<path d="M1178.47 2050.31C1178.72 2050.31 1178.92 2050.14 1178.92 2049.93C1178.92 2049.72 1178.72 2049.55 1178.47 2049.55C1178.22 2049.55 1178.02 2049.72 1178.02 2049.93C1178.02 2050.14 1178.22 2050.31 1178.47 2050.31Z" fill="#C4C4C4"/>
<path d="M1292.88 2051.85C1293.38 2051.85 1293.78 2051.5 1293.78 2051.08C1293.78 2050.66 1293.38 2050.31 1292.88 2050.31C1292.38 2050.31 1291.98 2050.66 1291.98 2051.08C1291.98 2051.5 1292.38 2051.85 1292.88 2051.85Z" fill="#C4C4C4"/>
<path d="M167.379 1029.8C167.629 1029.8 167.831 1029.63 167.831 1029.42C167.831 1029.21 167.629 1029.04 167.379 1029.04C167.129 1029.04 166.927 1029.21 166.927 1029.42C166.927 1029.63 167.129 1029.8 167.379 1029.8Z" fill="#C4C4C4"/>
<path d="M97.2901 1132.7C97.7896 1132.7 98.1945 1132.35 98.1945 1131.93C98.1945 1131.51 97.7896 1131.16 97.2901 1131.16C96.7906 1131.16 96.3857 1131.51 96.3857 1131.93C96.3857 1132.35 96.7906 1132.7 97.2901 1132.7Z" fill="#C4C4C4"/>
<path d="M1059.55 2014.22C1060.05 2014.22 1060.45 2013.87 1060.45 2013.45C1060.45 2013.03 1060.05 2012.68 1059.55 2012.68C1059.05 2012.68 1058.65 2013.03 1058.65 2013.45C1058.65 2013.87 1059.05 2014.22 1059.55 2014.22Z" fill="#C4C4C4"/>
<path d="M1094.82 1998.87C1095.32 1998.87 1095.72 1998.52 1095.72 1998.1C1095.72 1997.68 1095.32 1997.33 1094.82 1997.33C1094.32 1997.33 1093.92 1997.68 1093.92 1998.1C1093.92 1998.52 1094.32 1998.87 1094.82 1998.87Z" fill="#C4C4C4"/>
<path d="M532.3 1376.12C532.799 1376.12 533.204 1375.77 533.204 1375.35C533.204 1374.93 532.799 1374.58 532.3 1374.58C531.8 1374.58 531.396 1374.93 531.396 1375.35C531.396 1375.77 531.8 1376.12 532.3 1376.12Z" fill="#C4C4C4"/>
<path d="M523.25 1346.17C523.75 1346.17 524.155 1345.82 524.155 1345.4C524.155 1344.98 523.75 1344.63 523.25 1344.63C522.751 1344.63 522.346 1344.98 522.346 1345.4C522.346 1345.82 522.751 1346.17 523.25 1346.17Z" fill="#C4C4C4"/>
<path d="M653.94 1541.97C654.19 1541.97 654.392 1541.8 654.392 1541.59C654.392 1541.38 654.19 1541.21 653.94 1541.21C653.69 1541.21 653.488 1541.38 653.488 1541.59C653.488 1541.8 653.69 1541.97 653.94 1541.97Z" fill="#C4C4C4"/>
<path d="M581.58 1328.5C581.83 1328.5 582.032 1328.33 582.032 1328.12C582.032 1327.91 581.83 1327.74 581.58 1327.74C581.33 1327.74 581.128 1327.91 581.128 1328.12C581.128 1328.33 581.33 1328.5 581.58 1328.5Z" fill="#C4C4C4"/>
<path d="M583.39 1461.35C583.64 1461.35 583.842 1461.18 583.842 1460.97C583.842 1460.76 583.64 1460.59 583.39 1460.59C583.14 1460.59 582.938 1460.76 582.938 1460.97C582.938 1461.18 583.14 1461.35 583.39 1461.35Z" fill="#C4C4C4"/>
<path d="M573.45 1289.34C573.7 1289.34 573.902 1289.17 573.902 1288.96C573.902 1288.75 573.7 1288.58 573.45 1288.58C573.2 1288.58 572.998 1288.75 572.998 1288.96C572.998 1289.17 573.2 1289.34 573.45 1289.34Z" fill="#C4C4C4"/>
<path d="M704.13 1369.97C704.629 1369.97 705.034 1369.62 705.034 1369.2C705.034 1368.78 704.629 1368.43 704.13 1368.43C703.631 1368.43 703.226 1368.78 703.226 1369.2C703.226 1369.62 703.631 1369.97 704.13 1369.97Z" fill="#C4C4C4"/>
<path d="M775.57 1487.46C776.069 1487.46 776.474 1487.11 776.474 1486.69C776.474 1486.27 776.069 1485.92 775.57 1485.92C775.07 1485.92 774.666 1486.27 774.666 1486.69C774.666 1487.11 775.07 1487.46 775.57 1487.46Z" fill="#C4C4C4"/>
<path d="M519.63 1195.67C520.129 1195.67 520.534 1195.32 520.534 1194.9C520.534 1194.48 520.129 1194.13 519.63 1194.13C519.131 1194.13 518.726 1194.48 518.726 1194.9C518.726 1195.32 519.131 1195.67 519.63 1195.67Z" fill="#C4C4C4"/>
<path d="M554.91 1180.31C555.41 1180.31 555.815 1179.96 555.815 1179.54C555.815 1179.12 555.41 1178.77 554.91 1178.77C554.411 1178.77 554.006 1179.12 554.006 1179.54C554.006 1179.96 554.411 1180.31 554.91 1180.31Z" fill="#C4C4C4"/>
<path d="M1064.07 1925.92C1064.57 1925.92 1064.97 1925.57 1064.97 1925.15C1064.97 1924.73 1064.57 1924.38 1064.07 1924.38C1063.57 1924.38 1063.17 1924.73 1063.17 1925.15C1063.17 1925.57 1063.57 1925.92 1064.07 1925.92Z" fill="#C4C4C4"/>
<path d="M1304.18 2162.42C1304.43 2162.42 1304.63 2162.25 1304.63 2162.04C1304.63 2161.83 1304.43 2161.66 1304.18 2161.66C1303.93 2161.66 1303.73 2161.83 1303.73 2162.04C1303.73 2162.25 1303.93 2162.42 1304.18 2162.42Z" fill="#C4C4C4"/>
<path d="M1184.35 1887.52C1184.85 1887.52 1185.25 1887.17 1185.25 1886.75C1185.25 1886.33 1184.85 1885.98 1184.35 1885.98C1183.85 1885.98 1183.45 1886.33 1183.45 1886.75C1183.45 1887.17 1183.85 1887.52 1184.35 1887.52Z" fill="#C4C4C4"/>
<path d="M1267.1 2108.67C1267.35 2108.67 1267.55 2108.5 1267.55 2108.29C1267.55 2108.08 1267.35 2107.91 1267.1 2107.91C1266.85 2107.91 1266.65 2108.08 1266.65 2108.29C1266.65 2108.5 1266.85 2108.67 1267.1 2108.67Z" fill="#C4C4C4"/>
<path d="M1140.94 1880.61C1141.44 1880.61 1141.84 1880.26 1141.84 1879.84C1141.84 1879.42 1141.44 1879.07 1140.94 1879.07C1140.44 1879.07 1140.04 1879.42 1140.04 1879.84C1140.04 1880.26 1140.44 1880.61 1140.94 1880.61Z" fill="#C4C4C4"/>
<path d="M1352.57 1927.45C1353.07 1927.45 1353.47 1927.1 1353.47 1926.68C1353.47 1926.26 1353.07 1925.91 1352.57 1925.91C1352.07 1925.91 1351.67 1926.26 1351.67 1926.68C1351.67 1927.1 1352.07 1927.45 1352.57 1927.45Z" fill="#C4C4C4"/>
<path d="M591.98 1060.52C592.48 1060.52 592.885 1060.17 592.885 1059.75C592.885 1059.33 592.48 1058.98 591.98 1058.98C591.481 1058.98 591.076 1059.33 591.076 1059.75C591.076 1060.17 591.481 1060.52 591.98 1060.52Z" fill="#C4C4C4"/>
<path d="M534.56 1100.44C534.81 1100.44 535.012 1100.27 535.012 1100.06C535.012 1099.85 534.81 1099.68 534.56 1099.68C534.31 1099.68 534.108 1099.85 534.108 1100.06C534.108 1100.27 534.31 1100.44 534.56 1100.44Z" fill="#C4C4C4"/>
<path d="M454.97 1149.59C455.219 1149.59 455.422 1149.42 455.422 1149.21C455.422 1149 455.219 1148.83 454.97 1148.83C454.72 1148.83 454.518 1149 454.518 1149.21C454.518 1149.42 454.72 1149.59 454.97 1149.59Z" fill="#C4C4C4"/>
<path d="M362.725 1134.23C362.975 1134.23 363.177 1134.06 363.177 1133.85C363.177 1133.64 362.975 1133.47 362.725 1133.47C362.475 1133.47 362.273 1133.64 362.273 1133.85C362.273 1134.06 362.475 1134.23 362.725 1134.23Z" fill="#C4C4C4"/>
<path d="M442.31 1144.21C442.56 1144.21 442.762 1144.04 442.762 1143.83C442.762 1143.62 442.56 1143.45 442.31 1143.45C442.06 1143.45 441.858 1143.62 441.858 1143.83C441.858 1144.04 442.06 1144.21 442.31 1144.21Z" fill="#C4C4C4"/>
<path d="M360.917 1225.61C361.167 1225.61 361.369 1225.44 361.369 1225.23C361.369 1225.02 361.167 1224.85 360.917 1224.85C360.667 1224.85 360.465 1225.02 360.465 1225.23C360.465 1225.44 360.667 1225.61 360.917 1225.61Z" fill="#C4C4C4"/>
<path d="M279.07 1234.83C279.569 1234.83 279.974 1234.48 279.974 1234.06C279.974 1233.64 279.569 1233.29 279.07 1233.29C278.57 1233.29 278.166 1233.64 278.166 1234.06C278.166 1234.48 278.57 1234.83 279.07 1234.83Z" fill="#C4C4C4"/>
<path d="M375.39 1092.76C375.64 1092.76 375.842 1092.59 375.842 1092.38C375.842 1092.17 375.64 1092 375.39 1092C375.14 1092 374.938 1092.17 374.938 1092.38C374.938 1092.59 375.14 1092.76 375.39 1092.76Z" fill="#C4C4C4"/>
<path d="M396.64 1009.07C397.139 1009.07 397.544 1008.72 397.544 1008.3C397.544 1007.88 397.139 1007.53 396.64 1007.53C396.14 1007.53 395.735 1007.88 395.735 1008.3C395.735 1008.72 396.14 1009.07 396.64 1009.07Z" fill="#C4C4C4"/>
<path d="M5.94806 1906.72C6.44753 1906.72 6.85242 1906.37 6.85242 1905.95C6.85242 1905.53 6.44753 1905.18 5.94806 1905.18C5.44858 1905.18 5.0437 1905.53 5.0437 1905.95C5.0437 1906.37 5.44858 1906.72 5.94806 1906.72Z" fill="#C4C4C4"/>
<path d="M989.46 1445.99C989.71 1445.99 989.912 1445.82 989.912 1445.61C989.912 1445.4 989.71 1445.23 989.46 1445.23C989.21 1445.23 989.008 1445.4 989.008 1445.61C989.008 1445.82 989.21 1445.99 989.46 1445.99Z" fill="#C4C4C4"/>
<path d="M1019.3 1310.84C1019.55 1310.84 1019.75 1310.67 1019.75 1310.46C1019.75 1310.25 1019.55 1310.08 1019.3 1310.08C1019.05 1310.08 1018.85 1310.25 1018.85 1310.46C1018.85 1310.67 1019.05 1310.84 1019.3 1310.84Z" fill="#C4C4C4"/>
<path d="M913.04 1303.94C913.54 1303.94 913.944 1303.59 913.944 1303.17C913.944 1302.75 913.54 1302.4 913.04 1302.4C912.541 1302.4 912.136 1302.75 912.136 1303.17C912.136 1303.59 912.541 1303.94 913.04 1303.94Z" fill="#C4C4C4"/>
<path d="M947.41 1378.42C947.91 1378.42 948.315 1378.07 948.315 1377.65C948.315 1377.23 947.91 1376.88 947.41 1376.88C946.911 1376.88 946.506 1377.23 946.506 1377.65C946.506 1378.07 946.911 1378.42 947.41 1378.42Z" fill="#C4C4C4"/>
<path d="M1193.4 1297.03C1193.9 1297.03 1194.3 1296.68 1194.3 1296.26C1194.3 1295.84 1193.9 1295.49 1193.4 1295.49C1192.9 1295.49 1192.5 1295.84 1192.5 1296.26C1192.5 1296.68 1192.9 1297.03 1193.4 1297.03Z" fill="#C4C4C4"/>
<path d="M1164.46 1283.97C1164.96 1283.97 1165.36 1283.62 1165.36 1283.2C1165.36 1282.78 1164.96 1282.43 1164.46 1282.43C1163.96 1282.43 1163.56 1282.78 1163.56 1283.2C1163.56 1283.62 1163.96 1283.97 1164.46 1283.97Z" fill="#C4C4C4"/>
<path d="M1077.64 1269.38C1078.14 1269.38 1078.54 1269.03 1078.54 1268.61C1078.54 1268.19 1078.14 1267.84 1077.64 1267.84C1077.14 1267.84 1076.74 1268.19 1076.74 1268.61C1076.74 1269.03 1077.14 1269.38 1077.64 1269.38Z" fill="#C4C4C4"/>
<path d="M1183 1459.04C1183.25 1459.04 1183.45 1458.87 1183.45 1458.66C1183.45 1458.45 1183.25 1458.28 1183 1458.28C1182.75 1458.28 1182.55 1458.45 1182.55 1458.66C1182.55 1458.87 1182.75 1459.04 1183 1459.04Z" fill="#C4C4C4"/>
<path d="M1262.58 1054.37C1262.83 1054.37 1263.03 1054.2 1263.03 1053.99C1263.03 1053.78 1262.83 1053.61 1262.58 1053.61C1262.33 1053.61 1262.13 1053.78 1262.13 1053.99C1262.13 1054.2 1262.33 1054.37 1262.58 1054.37Z" fill="#C4C4C4"/>
<path d="M1027.9 1027.5C1028.4 1027.5 1028.8 1027.15 1028.8 1026.73C1028.8 1026.31 1028.4 1025.96 1027.9 1025.96C1027.4 1025.96 1027 1026.31 1027 1026.73C1027 1027.15 1027.4 1027.5 1027.9 1027.5Z" fill="#C4C4C4"/>
<path d="M964.59 1167.25C965.089 1167.25 965.494 1166.9 965.494 1166.48C965.494 1166.06 965.089 1165.71 964.59 1165.71C964.09 1165.71 963.686 1166.06 963.686 1166.48C963.686 1166.9 964.09 1167.25 964.59 1167.25Z" fill="#C4C4C4"/>
<path d="M875.06 1055.91C875.56 1055.91 875.964 1055.56 875.964 1055.14C875.964 1054.72 875.56 1054.37 875.06 1054.37C874.561 1054.37 874.156 1054.72 874.156 1055.14C874.156 1055.56 874.561 1055.91 875.06 1055.91Z" fill="#C4C4C4"/>
<g opacity="0.4">
<path opacity="0.4" d="M-23.3129 702.534C27.4321 692.153 60.0231 643.228 49.4821 593.257C38.9411 543.285 -10.7419 511.19 -61.4869 521.571C-112.232 531.952 -144.823 580.877 -134.282 630.849C-123.74 680.82 -74.0579 712.915 -23.3129 702.534Z" stroke="url(#paint1_linear_609_58)" stroke-miterlimit="10"/>
<path opacity="0.4" d="M-114.973 721.001C-53.8889 760.461 28.1122 743.686 68.1822 683.534C108.253 623.381 91.2182 542.63 30.1352 503.17C-30.9478 463.711 -112.95 480.486 -153.02 540.638C-193.09 600.79 -176.056 681.542 -114.973 721.001Z" stroke="url(#paint2_linear_609_58)" stroke-miterlimit="10"/>
<path opacity="0.4" d="M-5.48892 787.027C92.6421 766.953 155.668 672.34 135.283 575.705C114.898 479.069 18.8211 417.004 -79.3099 437.078C-177.442 457.153 -240.468 551.765 -220.082 648.401C-199.697 745.037 -103.62 807.102 -5.48892 787.027Z" stroke="url(#paint3_linear_609_58)" stroke-miterlimit="10"/>
<path opacity="0.4" d="M4.104 832.502C127.739 807.21 207.144 688.009 181.461 566.258C155.778 444.507 34.732 366.312 -88.903 391.604C-212.538 416.895 -291.944 536.097 -266.261 657.848C-240.578 779.598 -119.531 857.794 4.104 832.502Z" stroke="url(#paint4_linear_609_58)" stroke-miterlimit="10"/>
<path opacity="0.4" d="M-206.636 858.604C-68.3809 947.917 117.22 909.949 207.915 773.8C298.609 637.652 260.054 454.88 121.798 365.568C-16.4569 276.256 -202.058 314.224 -292.752 450.372C-383.447 586.52 -344.892 769.292 -206.636 858.604Z" stroke="url(#paint5_linear_609_58)" stroke-miterlimit="10"/>
<path opacity="0.4" d="M-264.817 945.944C-77.579 1066.9 173.779 1015.48 296.607 831.095C419.43 646.71 367.22 399.183 179.98 278.228C-7.25902 157.273 -258.617 208.692 -381.444 393.077C-504.271 577.462 -452.056 824.989 -264.817 945.944Z" stroke="url(#paint6_linear_609_58)" stroke-miterlimit="10"/>
<path opacity="0.4" d="M-312.938 1018.18C-85.187 1165.31 220.558 1102.76 369.96 878.482C519.37 654.201 455.85 353.116 228.101 205.99C0.349014 58.8633 -305.396 121.409 -454.8 345.689C-604.203 569.97 -540.69 871.054 -312.938 1018.18Z" stroke="url(#paint7_linear_609_58)" stroke-miterlimit="10"/>
<path opacity="0.4" d="M-344.664 1065.81C-90.2019 1230.19 251.4 1160.31 418.32 909.725C585.25 659.141 514.29 322.746 259.826 158.365C5.36511 -6.01586 -336.237 63.8647 -503.162 314.448C-670.087 565.031 -599.125 901.426 -344.664 1065.81Z" stroke="url(#paint8_linear_609_58)" stroke-miterlimit="10"/>
<path opacity="0.4" d="M-366.357 1098.2C-93.7 1274.33 272.327 1199.46 451.19 930.954C630.05 662.453 554.01 302.005 281.357 125.87C8.69998 -50.2653 -357.327 24.6121 -536.188 293.113C-715.049 561.614 -639.013 922.063 -366.357 1098.2Z" stroke="url(#paint9_linear_609_58)" stroke-miterlimit="10"/>
</g>
<path d="M60.599 1204.8C60.8554 1204.8 61.0632 1204.63 61.0632 1204.42C61.0632 1204.21 60.8554 1204.04 60.599 1204.04C60.3426 1204.04 60.1348 1204.21 60.1348 1204.42C60.1348 1204.63 60.3426 1204.8 60.599 1204.8Z" fill="#C4C4C4"/>
<path d="M21.1599 1294.65C21.6724 1294.65 22.088 1294.3 22.088 1293.88C22.088 1293.46 21.6724 1293.11 21.1599 1293.11C20.6474 1293.11 20.2319 1293.46 20.2319 1293.88C20.2319 1294.3 20.6474 1294.65 21.1599 1294.65Z" fill="#C4C4C4"/>
<path d="M91.2231 1069.65C91.4795 1069.65 91.6873 1069.48 91.6873 1069.27C91.6873 1069.06 91.4795 1068.89 91.2231 1068.89C90.9667 1068.89 90.7588 1069.06 90.7588 1069.27C90.7588 1069.48 90.9667 1069.65 91.2231 1069.65Z" fill="#C4C4C4"/>
<path d="M119.063 916.846C119.319 916.846 119.527 916.675 119.527 916.463C119.527 916.251 119.319 916.08 119.063 916.08C118.806 916.08 118.599 916.251 118.599 916.463C118.599 916.675 118.806 916.846 119.063 916.846Z" fill="#C4C4C4"/>
<path d="M79.6228 1322.29C80.1353 1322.29 80.5508 1321.94 80.5508 1321.52C80.5508 1321.1 80.1353 1320.75 79.6228 1320.75C79.1103 1320.75 78.6948 1321.1 78.6948 1321.52C78.6948 1321.94 79.1103 1322.29 79.6228 1322.29Z" fill="#C4C4C4"/>
<path d="M226.711 1096.53C226.967 1096.53 227.175 1096.36 227.175 1096.15C227.175 1095.94 226.967 1095.77 226.711 1095.77C226.454 1095.77 226.247 1095.94 226.247 1096.15C226.247 1096.36 226.454 1096.53 226.711 1096.53Z" fill="#C4C4C4"/>
<path d="M17.448 1137.23C17.9605 1137.23 18.376 1136.88 18.376 1136.46C18.376 1136.04 17.9605 1135.69 17.448 1135.69C16.9355 1135.69 16.52 1136.04 16.52 1136.46C16.52 1136.88 16.9355 1137.23 17.448 1137.23Z" fill="#C4C4C4"/>
<path d="M268.006 1379.88C268.519 1379.88 268.934 1379.53 268.934 1379.11C268.934 1378.69 268.519 1378.34 268.006 1378.34C267.494 1378.34 267.078 1378.69 267.078 1379.11C267.078 1379.53 267.494 1379.88 268.006 1379.88Z" fill="#C4C4C4"/>
<path d="M193.766 1345.32C194.278 1345.32 194.694 1344.97 194.694 1344.55C194.694 1344.13 194.278 1343.78 193.766 1343.78C193.253 1343.78 192.838 1344.13 192.838 1344.55C192.838 1344.97 193.253 1345.32 193.766 1345.32Z" fill="#C4C4C4"/>
<path d="M184.487 1315.38C185 1315.38 185.415 1315.03 185.415 1314.61C185.415 1314.19 185 1313.84 184.487 1313.84C183.975 1313.84 183.559 1314.19 183.559 1314.61C183.559 1315.03 183.975 1315.38 184.487 1315.38Z" fill="#C4C4C4"/>
<path d="M278.679 995.169C278.935 995.169 279.143 994.998 279.143 994.786C279.143 994.574 278.935 994.403 278.679 994.403C278.423 994.403 278.215 994.574 278.215 994.786C278.215 994.998 278.423 995.169 278.679 995.169Z" fill="#C4C4C4"/>
<path d="M68.0238 1005.92C68.2802 1005.92 68.488 1005.75 68.488 1005.54C68.488 1005.33 68.2802 1005.16 68.0238 1005.16C67.7674 1005.16 67.5596 1005.33 67.5596 1005.54C67.5596 1005.75 67.7674 1005.92 68.0238 1005.92Z" fill="#C4C4C4"/>
<path d="M229.495 1068.11C229.751 1068.11 229.959 1067.94 229.959 1067.73C229.959 1067.52 229.751 1067.35 229.495 1067.35C229.239 1067.35 229.031 1067.52 229.031 1067.73C229.031 1067.94 229.239 1068.11 229.495 1068.11Z" fill="#C4C4C4"/>
<path d="M120.919 977.507C121.175 977.507 121.383 977.336 121.383 977.124C121.383 976.912 121.175 976.74 120.919 976.74C120.662 976.74 120.455 976.912 120.455 977.124C120.455 977.336 120.662 977.507 120.919 977.507Z" fill="#C4C4C4"/>
<path d="M144.119 1033.56C144.375 1033.56 144.583 1033.39 144.583 1033.18C144.583 1032.97 144.375 1032.8 144.119 1032.8C143.863 1032.8 143.655 1032.97 143.655 1033.18C143.655 1033.39 143.863 1033.56 144.119 1033.56Z" fill="#C4C4C4"/>
<path d="M1037.31 1102.68C1037.82 1102.68 1038.24 1102.33 1038.24 1101.91C1038.24 1101.49 1037.82 1101.14 1037.31 1101.14C1036.8 1101.14 1036.38 1101.49 1036.38 1101.91C1036.38 1102.33 1036.8 1102.68 1037.31 1102.68Z" fill="#C4C4C4"/>
<path d="M1028.03 1072.73C1028.54 1072.73 1028.96 1072.38 1028.96 1071.96C1028.96 1071.54 1028.54 1071.19 1028.03 1071.19C1027.52 1071.19 1027.1 1071.54 1027.1 1071.96C1027.1 1072.38 1027.52 1072.73 1028.03 1072.73Z" fill="#C4C4C4"/>
<path d="M238.31 979.044C238.822 979.044 239.238 978.7 239.238 978.276C239.238 977.852 238.822 977.508 238.31 977.508C237.797 977.508 237.382 977.852 237.382 978.276C237.382 978.7 237.797 979.044 238.31 979.044Z" fill="#C4C4C4"/>
<path d="M669.83 817.023C670.342 817.023 670.758 816.679 670.758 816.255C670.758 815.831 670.342 815.487 669.83 815.487C669.317 815.487 668.902 815.831 668.902 816.255C668.902 816.679 669.317 817.023 669.83 817.023Z" fill="#C4C4C4"/>
<path d="M269.862 1055.83C270.375 1055.83 270.79 1055.48 270.79 1055.06C270.79 1054.64 270.375 1054.29 269.862 1054.29C269.35 1054.29 268.934 1054.64 268.934 1055.06C268.934 1055.48 269.35 1055.83 269.862 1055.83Z" fill="#C4C4C4"/>
<path d="M240.166 1042.78C240.678 1042.78 241.094 1042.43 241.094 1042.01C241.094 1041.59 240.678 1041.24 240.166 1041.24C239.653 1041.24 239.238 1041.59 239.238 1042.01C239.238 1042.43 239.653 1042.78 240.166 1042.78Z" fill="#C4C4C4"/>
<path d="M762.63 787.075C763.143 787.075 763.558 786.731 763.558 786.307C763.558 785.883 763.143 785.539 762.63 785.539C762.118 785.539 761.702 785.883 761.702 786.307C761.702 786.731 762.118 787.075 762.63 787.075Z" fill="#C4C4C4"/>
<path d="M151.079 1028.19C151.591 1028.19 152.007 1027.84 152.007 1027.42C152.007 1027 151.591 1026.65 151.079 1026.65C150.566 1026.65 150.151 1027 150.151 1027.42C150.151 1027.84 150.566 1028.19 151.079 1028.19Z" fill="#C4C4C4"/>
<path d="M596.52 945.258C597.032 945.258 597.448 944.914 597.448 944.49C597.448 944.066 597.032 943.722 596.52 943.722C596.007 943.722 595.592 944.066 595.592 944.49C595.592 944.914 596.007 945.258 596.52 945.258Z" fill="#C4C4C4"/>
<path d="M1094.39 1217.08C1094.65 1217.08 1094.85 1216.91 1094.85 1216.7C1094.85 1216.49 1094.65 1216.32 1094.39 1216.32C1094.13 1216.32 1093.93 1216.49 1093.93 1216.7C1093.93 1216.91 1094.13 1217.08 1094.39 1217.08Z" fill="#C4C4C4"/>
<path d="M684.21 793.218C684.466 793.218 684.674 793.046 684.674 792.834C684.674 792.622 684.466 792.451 684.21 792.451C683.953 792.451 683.746 792.622 683.746 792.834C683.746 793.046 683.953 793.218 684.21 793.218Z" fill="#C4C4C4"/>
<path d="M1080.47 1356.84C1080.73 1356.84 1080.93 1356.67 1080.93 1356.46C1080.93 1356.25 1080.73 1356.08 1080.47 1356.08C1080.21 1356.08 1080.01 1356.25 1080.01 1356.46C1080.01 1356.67 1080.21 1356.84 1080.47 1356.84Z" fill="#C4C4C4"/>
<path d="M1234.98 1385.25C1235.49 1385.25 1235.91 1384.9 1235.91 1384.48C1235.91 1384.06 1235.49 1383.71 1234.98 1383.71C1234.47 1383.71 1234.05 1384.06 1234.05 1384.48C1234.05 1384.9 1234.47 1385.25 1234.98 1385.25Z" fill="#C4C4C4"/>
<path d="M780.72 824.701C780.976 824.701 781.184 824.529 781.184 824.317C781.184 824.105 780.976 823.934 780.72 823.934C780.464 823.934 780.256 824.105 780.256 824.317C780.256 824.529 780.464 824.701 780.72 824.701Z" fill="#C4C4C4"/>
<path d="M1148.21 1288.49C1148.47 1288.49 1148.67 1288.32 1148.67 1288.11C1148.67 1287.9 1148.47 1287.73 1148.21 1287.73C1147.95 1287.73 1147.75 1287.9 1147.75 1288.11C1147.75 1288.32 1147.95 1288.49 1148.21 1288.49Z" fill="#C4C4C4"/>
<path d="M1228.02 1268.53C1228.28 1268.53 1228.48 1268.36 1228.48 1268.15C1228.48 1267.94 1228.28 1267.77 1228.02 1267.77C1227.76 1267.77 1227.56 1267.94 1227.56 1268.15C1227.56 1268.36 1227.76 1268.53 1228.02 1268.53Z" fill="#C4C4C4"/>
<path d="M1132.43 818.557C1132.69 818.557 1132.89 818.386 1132.89 818.174C1132.89 817.962 1132.69 817.791 1132.43 817.791C1132.17 817.791 1131.97 817.962 1131.97 818.174C1131.97 818.386 1132.17 818.557 1132.43 818.557Z" fill="#C4C4C4"/>
<path d="M1178.37 1316.91C1178.88 1316.91 1179.3 1316.56 1179.3 1316.14C1179.3 1315.72 1178.88 1315.37 1178.37 1315.37C1177.86 1315.37 1177.44 1315.72 1177.44 1316.14C1177.44 1316.56 1177.86 1316.91 1178.37 1316.91Z" fill="#C4C4C4"/>
<path d="M1103.67 1281.58C1103.93 1281.58 1104.13 1281.41 1104.13 1281.2C1104.13 1280.99 1103.93 1280.82 1103.67 1280.82C1103.41 1280.82 1103.21 1280.99 1103.21 1281.2C1103.21 1281.41 1103.41 1281.58 1103.67 1281.58Z" fill="#C4C4C4"/>
<path d="M130.199 1157.96C130.455 1157.96 130.663 1157.79 130.663 1157.58C130.663 1157.37 130.455 1157.2 130.199 1157.2C129.943 1157.2 129.735 1157.37 129.735 1157.58C129.735 1157.79 129.943 1157.96 130.199 1157.96Z" fill="#C4C4C4"/>
<path d="M1087.89 1055.06C1088.15 1055.06 1088.35 1054.89 1088.35 1054.68C1088.35 1054.47 1088.15 1054.3 1087.89 1054.3C1087.63 1054.3 1087.43 1054.47 1087.43 1054.68C1087.43 1054.89 1087.63 1055.06 1087.89 1055.06Z" fill="#C4C4C4"/>
<path d="M570.07 876.915C570.326 876.915 570.534 876.744 570.534 876.532C570.534 876.32 570.326 876.148 570.07 876.148C569.813 876.148 569.605 876.32 569.605 876.532C569.605 876.744 569.813 876.915 570.07 876.915Z" fill="#C4C4C4"/>
<path d="M1089.75 1187.9C1090.01 1187.9 1090.21 1187.73 1090.21 1187.52C1090.21 1187.31 1090.01 1187.14 1089.75 1187.14C1089.49 1187.14 1089.29 1187.31 1089.29 1187.52C1089.29 1187.73 1089.49 1187.9 1089.75 1187.9Z" fill="#C4C4C4"/>
<path d="M617.4 847.736C617.656 847.736 617.864 847.565 617.864 847.353C617.864 847.141 617.656 846.969 617.4 846.969C617.143 846.969 616.936 847.141 616.936 847.353C616.936 847.565 617.143 847.736 617.4 847.736Z" fill="#C4C4C4"/>
<path d="M610.9 797.056C611.156 797.056 611.364 796.885 611.364 796.673C611.364 796.461 611.156 796.29 610.9 796.29C610.643 796.29 610.436 796.461 610.436 796.673C610.436 796.885 610.643 797.056 610.9 797.056Z" fill="#C4C4C4"/>
<path d="M335.75 1107.28C336.263 1107.28 336.678 1106.93 336.678 1106.51C336.678 1106.09 336.263 1105.74 335.75 1105.74C335.238 1105.74 334.822 1106.09 334.822 1106.51C334.822 1106.93 335.238 1107.28 335.75 1107.28Z" fill="#C4C4C4"/>
<path d="M229.495 1190.21C229.751 1190.21 229.959 1190.04 229.959 1189.83C229.959 1189.62 229.751 1189.45 229.495 1189.45C229.239 1189.45 229.031 1189.62 229.031 1189.83C229.031 1190.04 229.239 1190.21 229.495 1190.21Z" fill="#C4C4C4"/>
<path d="M581.2 800.896C581.456 800.896 581.664 800.725 581.664 800.513C581.664 800.301 581.456 800.129 581.2 800.129C580.944 800.129 580.736 800.301 580.736 800.513C580.736 800.725 580.944 800.896 581.2 800.896Z" fill="#C4C4C4"/>
<path d="M551.51 787.841C551.767 787.841 551.974 787.67 551.974 787.458C551.974 787.246 551.767 787.074 551.51 787.074C551.254 787.074 551.046 787.246 551.046 787.458C551.046 787.67 551.254 787.841 551.51 787.841Z" fill="#C4C4C4"/>
<path d="M259.19 1217.85C259.446 1217.85 259.654 1217.68 259.654 1217.47C259.654 1217.26 259.446 1217.09 259.19 1217.09C258.933 1217.09 258.726 1217.26 258.726 1217.47C258.726 1217.68 258.933 1217.85 259.19 1217.85Z" fill="#C4C4C4"/>
<path d="M353.846 818.557C354.102 818.557 354.31 818.386 354.31 818.174C354.31 817.962 354.102 817.791 353.846 817.791C353.59 817.791 353.382 817.962 353.382 818.174C353.382 818.386 353.59 818.557 353.846 818.557Z" fill="#C4C4C4"/>
<path d="M344.566 788.61C344.822 788.61 345.03 788.439 345.03 788.227C345.03 788.015 344.822 787.844 344.566 787.844C344.309 787.844 344.102 788.015 344.102 788.227C344.102 788.439 344.309 788.61 344.566 788.61Z" fill="#C4C4C4"/>
<path d="M259.19 803.2C259.446 803.2 259.654 803.028 259.654 802.816C259.654 802.604 259.446 802.433 259.19 802.433C258.933 802.433 258.726 802.604 258.726 802.816C258.726 803.028 258.933 803.2 259.19 803.2Z" fill="#C4C4C4"/>
<path d="M340.854 813.181C341.11 813.181 341.318 813.01 341.318 812.798C341.318 812.586 341.11 812.415 340.854 812.415C340.597 812.415 340.39 812.586 340.39 812.798C340.39 813.01 340.597 813.181 340.854 813.181Z" fill="#C4C4C4"/>
<path d="M1264.67 795.522C1265.18 795.522 1265.6 795.178 1265.6 794.754C1265.6 794.33 1265.18 793.986 1264.67 793.986C1264.16 793.986 1263.74 794.33 1263.74 794.754C1263.74 795.178 1264.16 795.522 1264.67 795.522Z" fill="#C4C4C4"/>
<path d="M1079.54 1015.9C1079.8 1015.9 1080 1015.73 1080 1015.52C1080 1015.31 1079.8 1015.14 1079.54 1015.14C1079.28 1015.14 1079.08 1015.31 1079.08 1015.52C1079.08 1015.73 1079.28 1015.9 1079.54 1015.9Z" fill="#C4C4C4"/>
<path d="M169.639 211.167C170.151 211.167 170.567 210.823 170.567 210.399C170.567 209.975 170.151 209.631 169.639 209.631C169.126 209.631 168.711 209.975 168.711 210.399C168.711 210.823 169.126 211.167 169.639 211.167Z" fill="#C4C4C4"/>
<path d="M160.359 181.22C160.872 181.22 161.287 180.876 161.287 180.452C161.287 180.028 160.872 179.684 160.359 179.684C159.847 179.684 159.431 180.028 159.431 180.452C159.431 180.876 159.847 181.22 160.359 181.22Z" fill="#C4C4C4"/>
<path d="M106.071 367.812C106.328 367.812 106.535 367.641 106.535 367.429C106.535 367.217 106.328 367.045 106.071 367.045C105.815 367.045 105.607 367.217 105.607 367.429C105.607 367.641 105.815 367.812 106.071 367.812Z" fill="#C4C4C4"/>
<path d="M214.647 396.992C214.903 396.992 215.111 396.82 215.111 396.608C215.111 396.396 214.903 396.225 214.647 396.225C214.39 396.225 214.183 396.396 214.183 396.608C214.183 396.82 214.39 396.992 214.647 396.992Z" fill="#C4C4C4"/>
<path d="M294.454 377.027C294.71 377.027 294.918 376.856 294.918 376.644C294.918 376.432 294.71 376.26 294.454 376.26C294.198 376.26 293.99 376.432 293.99 376.644C293.99 376.856 294.198 377.027 294.454 377.027Z" fill="#C4C4C4"/>
<path d="M244.806 425.405C245.318 425.405 245.734 425.061 245.734 424.637C245.734 424.213 245.318 423.869 244.806 423.869C244.293 423.869 243.878 424.213 243.878 424.637C243.878 425.061 244.293 425.405 244.806 425.405Z" fill="#C4C4C4"/>
<path d="M170.103 390.081C170.359 390.081 170.567 389.91 170.567 389.698C170.567 389.486 170.359 389.314 170.103 389.314C169.847 389.314 169.639 389.486 169.639 389.698C169.639 389.91 169.847 390.081 170.103 390.081Z" fill="#C4C4C4"/>
<path d="M220.215 163.556C220.472 163.556 220.68 163.385 220.68 163.173C220.68 162.961 220.472 162.79 220.215 162.79C219.959 162.79 219.751 162.961 219.751 163.173C219.751 163.385 219.959 163.556 220.215 163.556Z" fill="#C4C4C4"/>
<path d="M222.071 296.4C222.328 296.4 222.535 296.229 222.535 296.017C222.535 295.805 222.328 295.634 222.071 295.634C221.815 295.634 221.607 295.805 221.607 296.017C221.607 296.229 221.815 296.4 222.071 296.4Z" fill="#C4C4C4"/>
<path d="M107.927 271.828C108.184 271.828 108.391 271.657 108.391 271.445C108.391 271.233 108.184 271.062 107.927 271.062C107.671 271.062 107.463 271.233 107.463 271.445C107.463 271.657 107.671 271.828 107.927 271.828Z" fill="#C4C4C4"/>
<path d="M101.431 221.148C101.687 221.148 101.895 220.977 101.895 220.765C101.895 220.553 101.687 220.382 101.431 220.382C101.175 220.382 100.967 220.553 100.967 220.765C100.967 220.977 101.175 221.148 101.431 221.148Z" fill="#C4C4C4"/>
<path d="M101.431 122.859C101.687 122.859 101.895 122.688 101.895 122.476C101.895 122.264 101.687 122.093 101.431 122.093C101.175 122.093 100.967 122.264 100.967 122.476C100.967 122.688 101.175 122.859 101.431 122.859Z" fill="#C4C4C4"/>
<path d="M211.863 124.396C212.12 124.396 212.327 124.224 212.327 124.012C212.327 123.8 212.12 123.629 211.863 123.629C211.607 123.629 211.399 123.8 211.399 124.012C211.399 124.224 211.607 124.396 211.863 124.396Z" fill="#C4C4C4"/>
<path d="M1266.07 960.616C1266.33 960.616 1266.53 960.444 1266.53 960.232C1266.53 960.02 1266.33 959.849 1266.07 959.849C1265.81 959.849 1265.61 960.02 1265.61 960.232C1265.61 960.444 1265.81 960.616 1266.07 960.616Z" fill="#C4C4C4"/>
<path d="M1145.89 873.846C1146.4 873.846 1146.82 873.502 1146.82 873.078C1146.82 872.654 1146.4 872.31 1145.89 872.31C1145.38 872.31 1144.96 872.654 1144.96 873.078C1144.96 873.502 1145.38 873.846 1145.89 873.846Z" fill="#C4C4C4"/>
<path d="M262.902 1245.49C263.158 1245.49 263.366 1245.32 263.366 1245.11C263.366 1244.9 263.158 1244.73 262.902 1244.73C262.645 1244.73 262.438 1244.9 262.438 1245.11C262.438 1245.32 262.645 1245.49 262.902 1245.49Z" fill="#C4C4C4"/>
<path d="M278.679 927.596C278.935 927.596 279.143 927.424 279.143 927.212C279.143 927 278.935 926.829 278.679 926.829C278.423 926.829 278.215 927 278.215 927.212C278.215 927.424 278.423 927.596 278.679 927.596Z" fill="#C4C4C4"/>
<path d="M315.334 913.007C315.847 913.007 316.262 912.663 316.262 912.239C316.262 911.815 315.847 911.471 315.334 911.471C314.822 911.471 314.406 911.815 314.406 912.239C314.406 912.663 314.822 913.007 315.334 913.007Z" fill="#C4C4C4"/>
<path d="M285.174 899.184C285.431 899.184 285.638 899.013 285.638 898.801C285.638 898.589 285.431 898.417 285.174 898.417C284.918 898.417 284.71 898.589 284.71 898.801C284.71 899.013 284.918 899.184 285.174 899.184Z" fill="#C4C4C4"/>
<path d="M472.17 894.578C472.683 894.578 473.098 894.234 473.098 893.81C473.098 893.386 472.683 893.042 472.17 893.042C471.658 893.042 471.242 893.386 471.242 893.81C471.242 894.234 471.658 894.578 472.17 894.578Z" fill="#C4C4C4"/>
<path d="M574.24 823.933C574.753 823.933 575.168 823.589 575.168 823.165C575.168 822.741 574.753 822.397 574.24 822.397C573.727 822.397 573.312 822.741 573.312 823.165C573.312 823.589 573.727 823.933 574.24 823.933Z" fill="#C4C4C4"/>
<path d="M100.039 786.307C100.551 786.307 100.967 785.963 100.967 785.539C100.967 785.115 100.551 784.771 100.039 784.771C99.5263 784.771 99.1108 785.115 99.1108 785.539C99.1108 785.963 99.5263 786.307 100.039 786.307Z" fill="#C4C4C4"/>
<path d="M35.0799 926.061C35.5924 926.061 36.0079 925.717 36.0079 925.293C36.0079 924.869 35.5924 924.525 35.0799 924.525C34.5674 924.525 34.1519 924.869 34.1519 925.293C34.1519 925.717 34.5674 926.061 35.0799 926.061Z" fill="#C4C4C4"/>
<path d="M1408.98 1357.6C1409.24 1357.6 1409.44 1357.43 1409.44 1357.22C1409.44 1357.01 1409.24 1356.84 1408.98 1356.84C1408.72 1356.84 1408.52 1357.01 1408.52 1357.22C1408.52 1357.43 1408.72 1357.6 1408.98 1357.6Z" fill="#C4C4C4"/>
<path d="M1385.78 1293.87C1386.04 1293.87 1386.24 1293.7 1386.24 1293.49C1386.24 1293.28 1386.04 1293.11 1385.78 1293.11C1385.52 1293.11 1385.32 1293.28 1385.32 1293.49C1385.32 1293.7 1385.52 1293.87 1385.78 1293.87Z" fill="#C4C4C4"/>
<path d="M76.8391 452.281C77.3516 452.281 77.7671 451.937 77.7671 451.513C77.7671 451.089 77.3516 450.745 76.8391 450.745C76.3266 450.745 75.9111 451.089 75.9111 451.513C75.9111 451.937 76.3266 452.281 76.8391 452.281Z" fill="#C4C4C4"/>
<path d="M67.5589 422.333C68.0714 422.333 68.4869 421.989 68.4869 421.565C68.4869 421.141 68.0714 420.797 67.5589 420.797C67.0464 420.797 66.6309 421.141 66.6309 421.565C66.6309 421.989 67.0464 422.333 67.5589 422.333Z" fill="#C4C4C4"/>
<path d="M66.1679 716.43C66.4243 716.43 66.6321 716.258 66.6321 716.046C66.6321 715.834 66.4243 715.663 66.1679 715.663C65.9115 715.663 65.7036 715.834 65.7036 716.046C65.7036 716.258 65.9115 716.43 66.1679 716.43Z" fill="#C4C4C4"/>
<path d="M145.975 783.235C146.231 783.235 146.439 783.064 146.439 782.852C146.439 782.64 146.231 782.469 145.975 782.469C145.719 782.469 145.511 782.64 145.511 782.852C145.511 783.064 145.719 783.235 145.975 783.235Z" fill="#C4C4C4"/>
<path d="M254.551 725.644C254.808 725.644 255.015 725.473 255.015 725.261C255.015 725.049 254.808 724.877 254.551 724.877C254.295 724.877 254.087 725.049 254.087 725.261C254.087 725.473 254.295 725.644 254.551 725.644Z" fill="#C4C4C4"/>
<path d="M176.135 811.647C176.648 811.647 177.063 811.303 177.063 810.879C177.063 810.455 176.648 810.111 176.135 810.111C175.622 810.111 175.207 810.455 175.207 810.879C175.207 811.303 175.622 811.647 176.135 811.647Z" fill="#C4C4C4"/>
<path d="M101.431 776.325C101.687 776.325 101.895 776.153 101.895 775.941C101.895 775.729 101.687 775.558 101.431 775.558C101.175 775.558 100.967 775.729 100.967 775.941C100.967 776.153 101.175 776.325 101.431 776.325Z" fill="#C4C4C4"/>
<path d="M119.063 434.619C119.319 434.619 119.527 434.448 119.527 434.236C119.527 434.024 119.319 433.853 119.063 433.853C118.806 433.853 118.599 434.024 118.599 434.236C118.599 434.448 118.806 434.619 119.063 434.619Z" fill="#C4C4C4"/>
<path d="M1070.26 634.266C1070.52 634.266 1070.72 634.095 1070.72 633.883C1070.72 633.671 1070.52 633.5 1070.26 633.5C1070 633.5 1069.8 633.671 1069.8 633.883C1069.8 634.095 1070 634.266 1070.26 634.266Z" fill="#C4C4C4"/>
<path d="M1034.53 662.679C1035.04 662.679 1035.46 662.335 1035.46 661.911C1035.46 661.487 1035.04 661.143 1034.53 661.143C1034.02 661.143 1033.6 661.487 1033.6 661.911C1033.6 662.335 1034.02 662.679 1034.53 662.679Z" fill="#C4C4C4"/>
<path d="M1025.71 627.357C1025.97 627.357 1026.17 627.185 1026.17 626.973C1026.17 626.761 1025.97 626.59 1025.71 626.59C1025.45 626.59 1025.25 626.761 1025.25 626.973C1025.25 627.185 1025.45 627.357 1025.71 627.357Z" fill="#C4C4C4"/>
<path d="M963.54 509.102C963.796 509.102 964.004 508.931 964.004 508.719C964.004 508.507 963.796 508.335 963.54 508.335C963.284 508.335 963.076 508.507 963.076 508.719C963.076 508.931 963.284 509.102 963.54 509.102Z" fill="#C4C4C4"/>
<path d="M875.38 507.566C875.637 507.566 875.844 507.395 875.844 507.183C875.844 506.971 875.637 506.8 875.38 506.8C875.124 506.8 874.916 506.971 874.916 507.183C874.916 507.395 875.124 507.566 875.38 507.566Z" fill="#C4C4C4"/>
<path d="M866.1 477.619C866.356 477.619 866.564 477.448 866.564 477.236C866.564 477.024 866.356 476.853 866.1 476.853C865.844 476.853 865.636 477.024 865.636 477.236C865.636 477.448 865.844 477.619 866.1 477.619Z" fill="#C4C4C4"/>
<path d="M862.39 502.191C862.646 502.191 862.854 502.02 862.854 501.808C862.854 501.596 862.646 501.425 862.39 501.425C862.134 501.425 861.926 501.596 861.926 501.808C861.926 502.02 862.134 502.191 862.39 502.191Z" fill="#C4C4C4"/>
<path d="M778.87 583.586C779.126 583.586 779.334 583.415 779.334 583.203C779.334 582.991 779.126 582.82 778.87 582.82C778.614 582.82 778.406 582.991 778.406 583.203C778.406 583.415 778.614 583.586 778.87 583.586Z" fill="#C4C4C4"/>
<path d="M780.72 644.248C780.976 644.248 781.184 644.077 781.184 643.865C781.184 643.653 780.976 643.481 780.72 643.481C780.464 643.481 780.256 643.653 780.256 643.865C780.256 644.077 780.464 644.248 780.72 644.248Z" fill="#C4C4C4"/>
<path d="M932.45 689.555C932.962 689.555 933.378 689.211 933.378 688.787C933.378 688.363 932.962 688.019 932.45 688.019C931.937 688.019 931.522 688.363 931.522 688.787C931.522 689.211 931.937 689.555 932.45 689.555Z" fill="#C4C4C4"/>
<path d="M923.17 659.607C923.683 659.607 924.098 659.263 924.098 658.839C924.098 658.415 923.683 658.071 923.17 658.071C922.658 658.071 922.242 658.415 922.242 658.839C922.242 659.263 922.658 659.607 923.17 659.607Z" fill="#C4C4C4"/>
<path d="M974.67 671.892C974.927 671.892 975.135 671.721 975.135 671.509C975.135 671.297 974.927 671.125 974.67 671.125C974.414 671.125 974.206 671.297 974.206 671.509C974.206 671.721 974.414 671.892 974.67 671.892Z" fill="#C4C4C4"/>
<path d="M190.519 615.069C190.775 615.069 190.983 614.898 190.983 614.686C190.983 614.474 190.775 614.302 190.519 614.302C190.263 614.302 190.055 614.474 190.055 614.686C190.055 614.898 190.263 615.069 190.519 615.069Z" fill="#C4C4C4"/>
<path d="M76.3759 590.497C76.6322 590.497 76.8401 590.326 76.8401 590.114C76.8401 589.902 76.6322 589.73 76.3759 589.73C76.1195 589.73 75.9116 589.902 75.9116 590.114C75.9116 590.326 76.1195 590.497 76.3759 590.497Z" fill="#C4C4C4"/>
<path d="M69.8788 539.818C70.1352 539.818 70.3431 539.647 70.3431 539.435C70.3431 539.223 70.1352 539.052 69.8788 539.052C69.6225 539.052 69.4146 539.223 69.4146 539.435C69.4146 539.647 69.6225 539.818 69.8788 539.818Z" fill="#C4C4C4"/>
<path d="M1318.03 1416.73C1318.29 1416.73 1318.49 1416.56 1318.49 1416.35C1318.49 1416.14 1318.29 1415.97 1318.03 1415.97C1317.77 1415.97 1317.57 1416.14 1317.57 1416.35C1317.57 1416.56 1317.77 1416.73 1318.03 1416.73Z" fill="#C4C4C4"/>
<path d="M532.95 545.961C533.206 545.961 533.414 545.789 533.414 545.577C533.414 545.365 533.206 545.194 532.95 545.194C532.694 545.194 532.486 545.365 532.486 545.577C532.486 545.789 532.694 545.961 532.95 545.961Z" fill="#C4C4C4"/>
<path d="M703.7 763.27C703.956 763.27 704.164 763.099 704.164 762.887C704.164 762.675 703.956 762.503 703.7 762.503C703.444 762.503 703.236 762.675 703.236 762.887C703.236 763.099 703.444 763.27 703.7 763.27Z" fill="#C4C4C4"/>
<path d="M783.51 830.076C783.767 830.076 783.974 829.904 783.974 829.692C783.974 829.48 783.767 829.309 783.51 829.309C783.254 829.309 783.046 829.48 783.046 829.692C783.046 829.904 783.254 830.076 783.51 830.076Z" fill="#C4C4C4"/>
<path d="M1161.2 772.484C1161.46 772.484 1161.66 772.313 1161.66 772.101C1161.66 771.889 1161.46 771.718 1161.2 771.718C1160.94 771.718 1160.74 771.889 1160.74 772.101C1160.74 772.313 1160.94 772.484 1161.2 772.484Z" fill="#C4C4C4"/>
<path d="M828.05 661.91C828.307 661.91 828.514 661.739 828.514 661.527C828.514 661.315 828.307 661.144 828.05 661.144C827.794 661.144 827.586 661.315 827.586 661.527C827.586 661.739 827.794 661.91 828.05 661.91Z" fill="#C4C4C4"/>
<path d="M713.91 637.338C714.166 637.338 714.374 637.167 714.374 636.955C714.374 636.743 714.166 636.572 713.91 636.572C713.654 636.572 713.446 636.743 713.446 636.955C713.446 637.167 713.654 637.338 713.91 637.338Z" fill="#C4C4C4"/>
<path d="M707.41 586.659C707.666 586.659 707.874 586.487 707.874 586.275C707.874 586.063 707.666 585.892 707.41 585.892C707.154 585.892 706.946 586.063 706.946 586.275C706.946 586.487 707.154 586.659 707.41 586.659Z" fill="#C4C4C4"/>
<path d="M625.75 635.803C626.006 635.803 626.214 635.631 626.214 635.419C626.214 635.207 626.006 635.036 625.75 635.036C625.493 635.036 625.286 635.207 625.286 635.419C625.286 635.631 625.493 635.803 625.75 635.803Z" fill="#C4C4C4"/>
<path d="M612.76 630.428C613.017 630.428 613.224 630.256 613.224 630.044C613.224 629.832 613.017 629.661 612.76 629.661C612.504 629.661 612.296 629.832 612.296 630.044C612.296 630.256 612.504 630.428 612.76 630.428Z" fill="#C4C4C4"/>
<path d="M442.01 605.087C442.267 605.087 442.474 604.916 442.474 604.704C442.474 604.492 442.267 604.321 442.01 604.321C441.754 604.321 441.546 604.492 441.546 604.704C441.546 604.916 441.754 605.087 442.01 605.087Z" fill="#C4C4C4"/>
<path d="M635.49 745.61C636.003 745.61 636.418 745.266 636.418 744.842C636.418 744.418 636.003 744.074 635.49 744.074C634.977 744.074 634.562 744.418 634.562 744.842C634.562 745.266 634.977 745.61 635.49 745.61Z" fill="#C4C4C4"/>
<path d="M1352.83 1214.02C1353.34 1214.02 1353.76 1213.67 1353.76 1213.25C1353.76 1212.83 1353.34 1212.48 1352.83 1212.48C1352.32 1212.48 1351.9 1212.83 1351.9 1213.25C1351.9 1213.67 1352.32 1214.02 1352.83 1214.02Z" fill="#C4C4C4"/>
<path d="M5.38403 913.007C5.89655 913.007 6.31207 912.663 6.31207 912.239C6.31207 911.815 5.89655 911.471 5.38403 911.471C4.87152 911.471 4.45605 911.815 4.45605 912.239C4.45605 912.663 4.87152 913.007 5.38403 913.007Z" fill="#C4C4C4"/>
<path d="M1144.5 897.649C1144.76 897.649 1144.96 897.478 1144.96 897.266C1144.96 897.054 1144.76 896.883 1144.5 896.883C1144.24 896.883 1144.04 897.054 1144.04 897.266C1144.04 897.478 1144.24 897.649 1144.5 897.649Z" fill="#C4C4C4"/>
<path d="M1146.35 958.31C1146.61 958.31 1146.81 958.139 1146.81 957.927C1146.81 957.715 1146.61 957.543 1146.35 957.543C1146.09 957.543 1145.89 957.715 1145.89 957.927C1145.89 958.139 1146.09 958.31 1146.35 958.31Z" fill="#C4C4C4"/>
<path d="M1263.74 959.849C1264.25 959.849 1264.67 959.505 1264.67 959.081C1264.67 958.657 1264.25 958.313 1263.74 958.313C1263.23 958.313 1262.81 958.657 1262.81 959.081C1262.81 959.505 1263.23 959.849 1263.74 959.849Z" fill="#C4C4C4"/>
<path d="M36.9348 40.6984C37.4473 40.6984 37.8628 40.3546 37.8628 39.9305C37.8628 39.5064 37.4473 39.1626 36.9348 39.1626C36.4223 39.1626 36.0068 39.5064 36.0068 39.9305C36.0068 40.3546 36.4223 40.6984 36.9348 40.6984Z" fill="#C4C4C4"/>
<path d="M1024.32 922.222C1024.83 922.222 1025.25 921.878 1025.25 921.454C1025.25 921.03 1024.83 920.686 1024.32 920.686C1023.81 920.686 1023.39 921.03 1023.39 921.454C1023.39 921.878 1023.81 922.222 1024.32 922.222Z" fill="#C4C4C4"/>
<path d="M1060.51 906.864C1061.02 906.864 1061.44 906.52 1061.44 906.096C1061.44 905.672 1061.02 905.328 1060.51 905.328C1060 905.328 1059.58 905.672 1059.58 906.096C1059.58 906.52 1060 906.864 1060.51 906.864Z" fill="#C4C4C4"/>
<path d="M483.3 284.116C483.813 284.116 484.228 283.772 484.228 283.348C484.228 282.924 483.813 282.58 483.3 282.58C482.788 282.58 482.372 282.924 482.372 283.348C482.372 283.772 482.788 284.116 483.3 284.116Z" fill="#C4C4C4"/>
<path d="M474.02 254.168C474.532 254.168 474.948 253.824 474.948 253.4C474.948 252.976 474.532 252.632 474.02 252.632C473.507 252.632 473.092 252.976 473.092 253.4C473.092 253.824 473.507 254.168 474.02 254.168Z" fill="#C4C4C4"/>
<path d="M608.12 449.976C608.376 449.976 608.584 449.805 608.584 449.593C608.584 449.381 608.376 449.209 608.12 449.209C607.864 449.209 607.656 449.381 607.656 449.593C607.656 449.805 607.864 449.976 608.12 449.976Z" fill="#C4C4C4"/>
<path d="M533.88 236.505C534.137 236.505 534.344 236.334 534.344 236.122C534.344 235.91 534.137 235.739 533.88 235.739C533.624 235.739 533.416 235.91 533.416 236.122C533.416 236.334 533.624 236.505 533.88 236.505Z" fill="#C4C4C4"/>
<path d="M535.73 369.348C535.986 369.348 536.194 369.177 536.194 368.965C536.194 368.753 535.986 368.582 535.73 368.582C535.473 368.582 535.266 368.753 535.266 368.965C535.266 369.177 535.473 369.348 535.73 369.348Z" fill="#C4C4C4"/>
<path d="M525.53 197.344C525.787 197.344 525.994 197.172 525.994 196.96C525.994 196.748 525.787 196.577 525.53 196.577C525.274 196.577 525.066 196.748 525.066 196.96C525.066 197.172 525.274 197.344 525.53 197.344Z" fill="#C4C4C4"/>
<path d="M659.62 277.972C660.132 277.972 660.548 277.628 660.548 277.204C660.548 276.78 660.132 276.436 659.62 276.436C659.107 276.436 658.692 276.78 658.692 277.204C658.692 277.628 659.107 277.972 659.62 277.972Z" fill="#C4C4C4"/>
<path d="M732.93 395.458C733.443 395.458 733.858 395.114 733.858 394.69C733.858 394.266 733.443 393.922 732.93 393.922C732.418 393.922 732.002 394.266 732.002 394.69C732.002 395.114 732.418 395.458 732.93 395.458Z" fill="#C4C4C4"/>
<path d="M470.31 103.665C470.822 103.665 471.238 103.321 471.238 102.897C471.238 102.473 470.822 102.129 470.31 102.129C469.797 102.129 469.382 102.473 469.382 102.897C469.382 103.321 469.797 103.665 470.31 103.665Z" fill="#C4C4C4"/>
<path d="M506.5 88.3063C507.013 88.3063 507.428 87.9625 507.428 87.5384C507.428 87.1143 507.013 86.7705 506.5 86.7705C505.988 86.7705 505.572 87.1143 505.572 87.5384C505.572 87.9625 505.988 88.3063 506.5 88.3063Z" fill="#C4C4C4"/>
<path d="M1028.96 833.916C1029.47 833.916 1029.89 833.572 1029.89 833.148C1029.89 832.724 1029.47 832.38 1028.96 832.38C1028.45 832.38 1028.03 832.724 1028.03 833.148C1028.03 833.572 1028.45 833.916 1028.96 833.916Z" fill="#C4C4C4"/>
<path d="M1275.35 1070.42C1275.61 1070.42 1275.81 1070.25 1275.81 1070.04C1275.81 1069.83 1275.61 1069.66 1275.35 1069.66C1275.09 1069.66 1274.89 1069.83 1274.89 1070.04C1274.89 1070.25 1275.09 1070.42 1275.35 1070.42Z" fill="#C4C4C4"/>
<path d="M1152.39 795.522C1152.9 795.522 1153.32 795.178 1153.32 794.754C1153.32 794.33 1152.9 793.986 1152.39 793.986C1151.88 793.986 1151.46 794.33 1151.46 794.754C1151.46 795.178 1151.88 795.522 1152.39 795.522Z" fill="#C4C4C4"/>
<path d="M1237.3 1016.67C1237.56 1016.67 1237.76 1016.5 1237.76 1016.29C1237.76 1016.08 1237.56 1015.91 1237.3 1015.91C1237.04 1015.91 1236.84 1016.08 1236.84 1016.29C1236.84 1016.5 1237.04 1016.67 1237.3 1016.67Z" fill="#C4C4C4"/>
<path d="M1107.84 788.611C1108.35 788.611 1108.77 788.267 1108.77 787.843C1108.77 787.419 1108.35 787.075 1107.84 787.075C1107.33 787.075 1106.91 787.419 1106.91 787.843C1106.91 788.267 1107.33 788.611 1107.84 788.611Z" fill="#C4C4C4"/>
<path d="M1324.99 835.452C1325.5 835.452 1325.92 835.108 1325.92 834.684C1325.92 834.26 1325.5 833.916 1324.99 833.916C1324.48 833.916 1324.06 834.26 1324.06 834.684C1324.06 835.108 1324.48 835.452 1324.99 835.452Z" fill="#C4C4C4"/>
<path d="M485.62 8.44562C485.876 8.44562 486.084 8.27394 486.084 8.06217C486.084 7.85039 485.876 7.67871 485.62 7.67871C485.364 7.67871 485.156 7.85039 485.156 8.06217C485.156 8.27394 485.364 8.44562 485.62 8.44562Z" fill="#C4C4C4"/>
<path d="M403.96 57.5899C404.216 57.5899 404.424 57.4182 404.424 57.2065C404.424 56.9947 404.216 56.823 403.96 56.823C403.703 56.823 403.496 56.9947 403.496 57.2065C403.496 57.4182 403.703 57.5899 403.96 57.5899Z" fill="#C4C4C4"/>
<path d="M309.302 42.2327C309.559 42.2327 309.766 42.0611 309.766 41.8493C309.766 41.6375 309.559 41.4658 309.302 41.4658C309.046 41.4658 308.838 41.6375 308.838 41.8493C308.838 42.0611 309.046 42.2327 309.302 42.2327Z" fill="#C4C4C4"/>
<path d="M390.97 52.2147C391.226 52.2147 391.434 52.043 391.434 51.8312C391.434 51.6194 391.226 51.4478 390.97 51.4478C390.714 51.4478 390.506 51.6194 390.506 51.8312C390.506 52.043 390.714 52.2147 390.97 52.2147Z" fill="#C4C4C4"/>
<path d="M307.446 133.61C307.703 133.61 307.91 133.439 307.91 133.227C307.91 133.015 307.703 132.844 307.446 132.844C307.19 132.844 306.982 133.015 306.982 133.227C306.982 133.439 307.19 133.61 307.446 133.61Z" fill="#C4C4C4"/>
<path d="M223.462 142.826C223.975 142.826 224.39 142.482 224.39 142.058C224.39 141.634 223.975 141.29 223.462 141.29C222.95 141.29 222.534 141.634 222.534 142.058C222.534 142.482 222.95 142.826 223.462 142.826Z" fill="#C4C4C4"/>
<path d="M322.294 0.766912C322.55 0.766912 322.758 0.595233 322.758 0.383456C322.758 0.171679 322.55 0 322.294 0C322.037 0 321.83 0.171679 321.83 0.383456C321.83 0.595233 322.037 0.766912 322.294 0.766912Z" fill="#C4C4C4"/>
<path d="M952.4 353.991C952.656 353.991 952.864 353.819 952.864 353.607C952.864 353.395 952.656 353.224 952.4 353.224C952.143 353.224 951.936 353.395 951.936 353.607C951.936 353.819 952.143 353.991 952.4 353.991Z" fill="#C4C4C4"/>
<path d="M983.03 218.845C983.287 218.845 983.494 218.673 983.494 218.461C983.494 218.249 983.287 218.078 983.03 218.078C982.774 218.078 982.566 218.249 982.566 218.461C982.566 218.673 982.774 218.845 983.03 218.845Z" fill="#C4C4C4"/>
<path d="M873.99 211.935C874.503 211.935 874.918 211.591 874.918 211.167C874.918 210.743 874.503 210.399 873.99 210.399C873.477 210.399 873.062 210.743 873.062 211.167C873.062 211.591 873.477 211.935 873.99 211.935Z" fill="#C4C4C4"/>
<path d="M909.25 286.419C909.763 286.419 910.178 286.075 910.178 285.651C910.178 285.227 909.763 284.883 909.25 284.883C908.738 284.883 908.322 285.227 908.322 285.651C908.322 286.075 908.738 286.419 909.25 286.419Z" fill="#C4C4C4"/>
<path d="M1161.67 205.024C1162.18 205.024 1162.6 204.68 1162.6 204.256C1162.6 203.832 1162.18 203.488 1161.67 203.488C1161.16 203.488 1160.74 203.832 1160.74 204.256C1160.74 204.68 1161.16 205.024 1161.67 205.024Z" fill="#C4C4C4"/>
<path d="M1131.97 191.97C1132.48 191.97 1132.9 191.626 1132.9 191.202C1132.9 190.778 1132.48 190.434 1131.97 190.434C1131.46 190.434 1131.04 190.778 1131.04 191.202C1131.04 191.626 1131.46 191.97 1131.97 191.97Z" fill="#C4C4C4"/>
<path d="M1042.88 177.38C1043.39 177.38 1043.81 177.036 1043.81 176.612C1043.81 176.188 1043.39 175.844 1042.88 175.844C1042.37 175.844 1041.95 176.188 1041.95 176.612C1041.95 177.036 1042.37 177.38 1042.88 177.38Z" fill="#C4C4C4"/>
<path d="M1150.99 367.046C1151.25 367.046 1151.45 366.874 1151.45 366.662C1151.45 366.45 1151.25 366.279 1150.99 366.279C1150.73 366.279 1150.53 366.45 1150.53 366.662C1150.53 366.874 1150.73 367.046 1150.99 367.046Z" fill="#C4C4C4"/>
<path d="M926.88 75.2516C927.393 75.2516 927.808 74.9078 927.808 74.4837C927.808 74.0596 927.393 73.7158 926.88 73.7158C926.368 73.7158 925.952 74.0596 925.952 74.4837C925.952 74.9078 926.368 75.2516 926.88 75.2516Z" fill="#C4C4C4"/>
</g>
<defs>
<linearGradient id="paint0_linear_609_58" x1="713" y1="0" x2="713" y2="2539" gradientUnits="userSpaceOnUse">
<stop stop-color="#040327"/>
<stop offset="0.111847" stop-color="#0D0E13"/>
</linearGradient>
<linearGradient id="paint1_linear_609_58" x1="486.9" y1="1061.05" x2="-143.134" y2="572.534" gradientUnits="userSpaceOnUse">
<stop stop-color="#F9BDB1" stop-opacity="0.24"/>
<stop offset="1" stop-color="#040327"/>
</linearGradient>
<linearGradient id="paint2_linear_609_58" x1="486.9" y1="1061.05" x2="-143.134" y2="572.534" gradientUnits="userSpaceOnUse">
<stop stop-color="#F9BDB1" stop-opacity="0.24"/>
<stop offset="1" stop-color="#040327"/>
</linearGradient>
<linearGradient id="paint3_linear_609_58" x1="486.9" y1="1061.05" x2="-143.134" y2="572.534" gradientUnits="userSpaceOnUse">
<stop stop-color="#F9BDB1" stop-opacity="0.24"/>
<stop offset="1" stop-color="#040327"/>
</linearGradient>
<linearGradient id="paint4_linear_609_58" x1="486.9" y1="1061.05" x2="-143.134" y2="572.534" gradientUnits="userSpaceOnUse">
<stop stop-color="#F9BDB1" stop-opacity="0.24"/>
<stop offset="1" stop-color="#040327"/>
</linearGradient>
<linearGradient id="paint5_linear_609_58" x1="486.9" y1="1061.05" x2="-143.134" y2="572.534" gradientUnits="userSpaceOnUse">
<stop stop-color="#F9BDB1" stop-opacity="0.24"/>
<stop offset="1" stop-color="#040327"/>
</linearGradient>
<linearGradient id="paint6_linear_609_58" x1="486.9" y1="1061.05" x2="-143.134" y2="572.534" gradientUnits="userSpaceOnUse">
<stop stop-color="#F9BDB1" stop-opacity="0.24"/>
<stop offset="1" stop-color="#040327"/>
</linearGradient>
<linearGradient id="paint7_linear_609_58" x1="486.9" y1="1061.05" x2="-143.134" y2="572.534" gradientUnits="userSpaceOnUse">
<stop stop-color="#F9BDB1" stop-opacity="0.24"/>
<stop offset="1" stop-color="#040327"/>
</linearGradient>
<linearGradient id="paint8_linear_609_58" x1="486.9" y1="1061.05" x2="-143.134" y2="572.534" gradientUnits="userSpaceOnUse">
<stop stop-color="#F9BDB1" stop-opacity="0.24"/>
<stop offset="1" stop-color="#040327"/>
</linearGradient>
<linearGradient id="paint9_linear_609_58" x1="486.9" y1="1061.05" x2="-143.134" y2="572.534" gradientUnits="userSpaceOnUse">
<stop stop-color="#F9BDB1" stop-opacity="0.24"/>
<stop offset="1" stop-color="#040327"/>
</linearGradient>
<clipPath id="clip0_609_58">
<rect width="1433" height="2540" fill="white"/>
</clipPath>
</defs>
</svg>
